<?xml version="1.0" standalone="no"?>
<!DOCTYPE svg PUBLIC "-//W3C//DTD SVG 20010904//EN"
 "http://www.w3.org/TR/2001/REC-SVG-20010904/DTD/svg10.dtd">
<svg version="1.0" xmlns="http://www.w3.org/2000/svg"
 width="512.000000pt" height="512.000000pt" viewBox="0 0 512.000000 512.000000"
 preserveAspectRatio="xMidYMid meet">

<g transform="translate(0.000000,512.000000) scale(0.100000,-0.100000)"
fill="#ffffff" stroke="none">
<path d="M3569 4027 c-68 -36 -103 -93 -107 -175 -3 -56 0 -74 20 -112 41 -76
86 -100 219 -115 197 -23 294 -70 427 -209 169 -176 220 -394 147 -622 -14
-44 -38 -99 -54 -124 -49 -78 -334 -381 -722 -766 -348 -345 -379 -374 -449
-408 -223 -109 -493 -77 -670 80 -177 156 -244 299 -243 514 1 126 31 233 92
327 21 33 111 134 198 224 88 90 168 178 177 196 32 64 15 176 -37 231 -64 69
-179 86 -258 40 -54 -32 -339 -320 -404 -408 -128 -175 -195 -386 -195 -615 0
-311 102 -551 329 -775 137 -135 269 -213 445 -264 326 -95 682 -24 939 186
200 165 1039 1033 1137 1177 224 331 231 798 17 1129 -204 316 -542 512 -882
512 -66 0 -90 -4 -126 -23z"/>
<path d="M2285 3939 c-153 -19 -318 -80 -448 -165 -137 -90 -1119 -1086 -1228
-1245 -244 -359 -238 -853 14 -1195 207 -281 518 -451 835 -455 93 -2 131 10
180 55 70 63 87 177 38 260 -42 72 -86 95 -201 107 -191 20 -313 77 -436 205
-132 138 -181 256 -181 434 0 155 44 282 133 385 240 276 1003 1045 1094 1102
28 18 86 44 130 59 69 24 96 28 195 28 98 0 127 -4 196 -27 182 -61 350 -229
411 -411 23 -69 27 -98 27 -196 0 -98 -4 -127 -27 -196 -35 -104 -75 -160
-253 -351 -180 -195 -194 -215 -201 -290 -7 -79 31 -154 100 -197 59 -36 140
-41 200 -11 40 19 331 324 415 434 97 127 173 327 193 510 27 246 -49 520
-200 721 -63 83 -198 214 -279 269 -131 89 -297 149 -467 170 -101 12 -139 12
-240 0z"/>
</g>
</svg>
