<?xml version="1.0" standalone="no"?>
<!DOCTYPE svg PUBLIC "-//W3C//DTD SVG 20010904//EN"
 "http://www.w3.org/TR/2001/REC-SVG-20010904/DTD/svg10.dtd">
<svg version="1.0" xmlns="http://www.w3.org/2000/svg"
 width="513.000000pt" height="489.000000pt" viewBox="0 0 513.000000 489.000000"
 preserveAspectRatio="xMidYMid meet">

<g transform="translate(0.000000,489.000000) scale(0.100000,-0.100000)"
fill="#ff0000" stroke="none">
<path d="M248 4873 c6 -2 18 -2 25 0 6 3 1 5 -13 5 -14 0 -19 -2 -12 -5z"/>
<path d="M342 4853 c-6 -19 -5 -39 4 -63 24 -67 11 -140 -26 -140 -10 0 -49
-78 -42 -84 2 -3 14 0 25 6 19 10 20 8 14 -25 -5 -31 -3 -36 16 -39 16 -2 21
-9 19 -23 -1 -12 5 -30 15 -41 10 -11 28 -38 39 -59 29 -52 41 -54 49 -6 10
63 -11 137 -55 186 -24 27 -37 71 -19 59 12 -6 12 -5 0 9 -28 35 25 18 72 -23
89 -79 112 -190 62 -299 l-25 -54 24 -32 25 -32 57 19 c62 21 99 21 99 -1 0
-9 -24 -23 -62 -35 -35 -11 -63 -23 -63 -28 0 -13 28 -9 61 8 42 21 47 11 15
-33 l-26 -38 37 -3 c65 -5 71 -11 35 -34 -44 -28 -30 -43 17 -16 51 29 87 19
107 -28 17 -40 15 -85 -2 -91 -7 -2 -14 14 -18 36 -4 25 -14 44 -25 51 -23 12
-78 13 -85 2 -2 -4 10 -6 28 -4 58 7 81 -43 52 -110 -6 -13 3 -24 41 -47 53
-32 83 -81 83 -131 0 -35 2 -36 37 -13 26 17 26 17 21 -4 -5 -17 -2 -20 11
-15 14 5 14 3 -2 -22 -23 -35 -18 -41 19 -22 37 20 41 13 15 -20 -12 -15 -19
-30 -16 -33 3 -3 16 7 28 22 16 20 28 25 45 21 26 -7 27 -12 9 -39 -38 -56
-48 -75 -39 -75 5 0 21 18 36 40 26 39 62 57 49 24 -5 -14 -3 -15 15 -5 30 16
27 4 -13 -56 -19 -29 -35 -59 -35 -68 0 -9 19 -43 42 -75 35 -50 45 -59 64
-54 31 8 92 -13 104 -36 6 -10 10 -29 10 -41 0 -20 -4 -21 -40 -15 -22 3 -40
4 -40 1 0 -6 39 -22 54 -23 15 0 28 -31 21 -51 -11 -35 14 -33 50 4 20 19 40
33 46 30 15 -10 10 -58 -9 -90 -10 -16 -16 -37 -15 -45 3 -12 56 -55 85 -68 4
-2 8 14 10 35 l3 38 16 -30 c19 -35 44 -134 36 -142 -3 -3 -26 12 -52 32 -27
22 -43 31 -39 21 6 -16 104 -89 111 -82 2 1 -5 39 -14 84 -22 104 -14 116 52
84 l45 -22 0 35 c0 55 26 45 45 -17 26 -88 24 -91 -36 -67 -29 11 -53 18 -54
17 -1 -2 11 -50 27 -106 16 -57 27 -106 24 -109 -3 -3 -31 11 -61 31 -44 29
-54 33 -45 17 6 -12 15 -21 20 -21 18 0 50 -40 50 -61 0 -11 9 -34 20 -49 l21
-29 47 31 c125 82 166 147 167 259 0 66 -4 84 -32 137 -27 54 -29 63 -16 74
13 10 19 8 39 -17 36 -45 57 -121 57 -202 0 -61 -5 -82 -32 -137 -36 -73 -90
-125 -157 -153 -50 -20 -54 -41 -13 -60 33 -16 49 -73 49 -172 0 -78 -7 -104
-24 -94 -6 4 -14 8 -18 9 -5 1 -11 2 -15 3 -5 1 -16 8 -26 15 -16 12 -17 18
-7 38 22 42 -6 4 -124 -165 -132 -189 -136 -197 -110 -197 11 0 28 -7 38 -15
19 -15 19 -16 -9 -45 -33 -35 -42 -36 -67 -13 -14 13 -21 14 -30 5 -9 -9 -9
-15 0 -24 21 -21 13 -34 -25 -44 -25 -6 -43 -18 -53 -37 -14 -26 -14 -28 15
-51 l30 -24 -28 -11 c-16 -6 -41 -11 -56 -11 -40 0 -58 -24 -41 -55 14 -27 3
-65 -32 -110 -22 -28 -58 -34 -58 -9 0 24 -14 10 -66 -67 l-49 -71 28 -23 c32
-29 33 -34 7 -85 -41 -79 -15 -83 35 -5 38 58 63 69 100 42 17 -14 17 -15 0
-45 -23 -39 -113 -87 -179 -97 -41 -6 -51 -3 -71 15 -19 18 -27 20 -42 10 -16
-10 -16 -10 4 -5 13 4 25 0 30 -8 13 -23 47 -37 64 -26 7 5 30 9 49 9 95 1
234 143 155 159 -45 8 -68 22 -57 33 28 28 117 -34 107 -75 -5 -20 1 -31 34
-59 23 -19 41 -37 41 -40 0 -3 -34 -8 -75 -10 -74 -5 -168 -40 -167 -63 0 -9
26 -21 126 -58 15 -6 16 -10 5 -23 -10 -12 -23 -14 -60 -9 -29 4 -49 3 -54 -4
-3 -6 -17 -11 -30 -11 -19 0 -26 -7 -34 -37 -6 -20 -23 -49 -37 -65 -15 -15
-22 -28 -16 -28 21 0 50 37 63 78 11 38 14 40 59 46 26 4 54 4 63 0 8 -3 25 0
36 6 36 19 43 2 18 -43 -21 -37 -28 -42 -63 -45 -21 -2 -43 -7 -48 -13 -13
-12 -16 -89 -4 -89 5 0 6 -9 3 -20 -4 -12 -2 -20 5 -20 7 0 10 -7 6 -15 -4
-11 1 -15 19 -15 14 0 25 -4 25 -10 0 -18 33 -48 46 -43 30 11 12 -15 -18 -28
-18 -7 -45 -22 -60 -32 -18 -13 -35 -18 -52 -13 -23 6 -24 9 -15 33 9 24 7 30
-11 45 -12 10 -27 18 -34 18 -6 0 1 -10 16 -21 26 -19 27 -21 12 -45 -15 -23
-15 -24 11 -34 39 -15 50 -13 108 20 30 16 64 30 77 30 22 0 22 -1 6 -18 -9
-11 -48 -31 -86 -46 -81 -32 -115 -27 -169 24 -17 17 -37 30 -46 30 -8 0 -19
9 -25 21 -11 20 -11 20 -55 -5 -24 -15 -59 -26 -79 -26 -32 0 -36 3 -45 37
-12 44 -10 48 19 33 11 -6 35 -10 53 -8 31 3 32 5 35 51 2 26 6 47 10 47 4 0
20 10 36 23 26 21 28 25 15 48 -7 13 -12 31 -11 40 2 10 -12 26 -33 39 -41 25
-43 35 -12 51 45 24 43 59 -4 59 -16 0 -29 5 -29 10 0 6 -4 10 -10 10 -5 0 -7
-7 -4 -15 4 -9 19 -15 35 -15 16 0 29 -4 29 -9 0 -14 -41 -41 -62 -41 -31 0
-20 -18 27 -46 36 -20 45 -31 45 -53 0 -15 6 -33 13 -40 10 -10 7 -16 -13 -32
-51 -39 -52 -40 -45 -75 5 -30 3 -34 -20 -40 -25 -6 -39 1 -95 45 -23 18 -24
22 -13 52 16 42 2 60 -26 35 -11 -10 -24 -15 -30 -12 -21 13 -22 -17 -1 -36
12 -12 34 -46 47 -76 31 -65 27 -116 -11 -170 -44 -62 -118 -146 -139 -158
-17 -10 -17 -12 -3 -17 9 -4 23 -4 31 -1 8 4 15 1 15 -5 0 -7 -10 -16 -23 -21
l-22 -9 23 0 c20 -1 34 -21 14 -21 -5 0 -16 -6 -26 -13 -18 -13 -18 -15 1 -58
18 -40 59 -88 66 -78 2 2 -1 46 -6 97 -5 51 -7 95 -3 99 3 4 31 -18 61 -47 30
-30 55 -50 55 -45 0 6 -7 32 -15 59 -8 26 -12 52 -10 56 12 19 73 -14 127 -67
87 -86 77 -115 -14 -43 -52 41 -74 50 -65 26 10 -25 19 -106 12 -106 -3 0 -27
14 -51 31 -25 17 -48 29 -50 26 -5 -5 11 -157 22 -210 7 -33 24 -35 50 -6 37
42 113 69 192 69 39 0 72 -4 72 -9 0 -18 -52 -71 -101 -102 -27 -18 -49 -34
-49 -35 0 -2 14 2 30 8 17 5 64 41 105 80 41 38 75 65 75 58 0 -21 -28 -65
-64 -99 -43 -41 -45 -51 -11 -51 18 0 25 5 25 20 0 25 21 25 62 0 40 -24 88
-27 88 -5 0 19 4 19 43 -1 l32 -16 -27 29 c-16 16 -28 34 -28 40 0 27 21 21
65 -17 64 -55 68 -50 6 8 -53 50 -57 58 -41 82 8 12 24 0 85 -64 l74 -78 33
21 c116 74 198 78 236 11 l17 -30 95 2 95 3 42 65 c24 35 43 67 43 71 0 4 -21
12 -46 18 -32 8 -57 24 -84 54 -38 40 -39 64 -2 36 9 -7 6 0 -8 15 l-25 29 46
-27 c37 -21 59 -26 112 -26 l67 0 29 47 30 48 -23 30 c-13 16 -45 41 -72 55
-69 36 -105 61 -99 70 3 5 1 11 -5 15 -49 30 63 47 138 21 23 -9 62 -29 87
-46 l44 -30 25 43 c33 55 33 80 1 105 -36 29 -85 35 -135 17 -49 -17 -56 -15
-39 13 30 48 133 58 190 19 19 -13 39 -26 45 -29 6 -4 18 6 27 22 17 27 16 28
-3 23 -19 -5 -20 -2 -16 68 l5 74 -12 -65 c-8 -46 -17 -65 -27 -65 -12 0 -15
13 -13 65 0 36 -1 52 -3 35 -9 -65 -14 -74 -34 -72 -12 1 -23 10 -25 22 -3 11
-10 42 -15 69 -18 83 -49 125 -119 161 -49 25 -142 17 -176 -15 -58 -55 -53
-147 10 -177 42 -20 80 -11 99 25 l15 27 1 -27 c0 -58 -86 -87 -144 -49 -75
50 -75 141 1 213 38 36 73 48 144 48 69 0 110 -15 165 -60 35 -29 35 -28 -5 9
-41 38 -86 58 -175 76 -41 9 -15 25 39 25 81 -1 178 -62 226 -143 17 -29 27
-41 24 -27 -24 87 -124 170 -224 186 -55 9 -56 34 -1 34 99 0 211 -75 260
-175 21 -43 25 -64 25 -148 0 -53 1 -97 2 -97 0 0 11 20 23 45 19 40 21 50 10
76 -15 35 0 63 22 41 7 -7 18 -12 26 -12 9 0 3 13 -17 35 -31 36 -36 50 -25
80 9 23 61 47 97 44 46 -4 48 9 5 35 -21 13 -35 26 -31 29 3 4 -1 7 -10 7 -22
0 -22 14 0 35 13 14 28 16 70 11 30 -3 59 -7 65 -9 10 -2 67 69 68 86 0 14
-33 7 -68 -15 l-35 -22 19 33 c27 46 66 64 126 59 74 -8 159 -84 113 -102 -10
-3 -30 5 -51 20 -40 31 -43 26 -12 -19 13 -18 24 -34 25 -36 1 -1 16 4 34 13
43 21 59 20 59 -4 0 -12 -10 -24 -24 -30 -13 -5 -27 -14 -31 -19 -8 -14 -2
-14 29 0 50 23 77 -35 34 -72 l-23 -19 30 6 c29 7 30 7 13 -13 -10 -11 -18
-24 -18 -30 0 -17 35 -43 59 -43 21 0 114 -77 131 -110 6 -12 1 -28 -17 -54
-15 -23 -21 -42 -16 -47 6 -6 26 16 50 55 24 37 55 71 72 81 39 20 39 13 -3
-38 -33 -42 -58 -84 -76 -132 -16 -43 -2 -27 30 34 18 33 42 69 55 81 l24 22
-4 -33 c-2 -19 -12 -59 -23 -89 -37 -102 -38 -123 -2 -184 17 -31 35 -58 40
-61 5 -3 12 16 15 42 16 114 35 107 35 -12 0 -84 0 -85 28 -91 49 -11 52 -13
52 -48 0 -45 -16 -55 -25 -16 -7 30 -19 38 -30 20 -9 -15 22 -66 55 -90 16
-12 30 -30 30 -40 0 -34 12 -50 36 -50 29 0 42 -25 25 -51 -10 -17 -8 -19 14
-19 14 0 28 -7 32 -15 8 -23 -4 -30 -23 -14 -16 13 -16 12 -5 -9 10 -18 20
-22 64 -22 l53 0 -4 134 c-4 140 7 238 35 308 14 35 17 38 26 22 7 -12 6 -59
-3 -145 -13 -131 -9 -276 10 -307 7 -12 8 -1 3 38 -10 68 -9 267 0 276 13 13
19 -5 48 -143 35 -165 39 -177 32 -96 -6 68 4 80 31 41 9 -12 16 -17 16 -9 0
7 6 11 13 9 6 -3 17 -31 22 -63 6 -34 16 -60 24 -63 10 -3 12 0 7 14 -11 28
-20 169 -12 190 6 16 9 15 25 -11 10 -17 24 -59 31 -95 16 -89 24 -100 65
-100 19 0 35 5 35 11 0 8 4 8 13 1 14 -12 353 -17 360 -5 2 4 8 33 11 65 7 54
6 57 -21 73 -16 9 -39 33 -52 52 l-23 36 33 -6 c19 -3 43 -9 53 -13 14 -5 17
-4 12 4 -4 7 -15 12 -24 12 -72 1 -261 159 -313 262 -16 32 -25 58 -20 58 6 0
15 -8 21 -18 11 -16 11 -16 6 1 -3 11 -9 31 -12 45 -5 26 -5 26 10 7 8 -11 21
-27 29 -35 7 -8 29 -37 47 -64 62 -92 172 -175 247 -187 46 -8 23 17 -36 40
-84 31 -168 110 -209 194 -18 36 -32 77 -32 93 1 25 2 26 11 12 13 -23 48 -23
56 -2 4 11 -2 23 -17 34 l-23 18 21 11 c11 6 23 11 25 11 2 0 10 -26 16 -58
13 -67 55 -139 99 -171 53 -37 123 -64 135 -52 6 6 9 11 7 12 -3 0 -18 2 -35
4 -18 3 -40 16 -55 34 -14 16 -36 31 -49 33 -17 2 -32 18 -54 56 -16 29 -27
55 -24 58 12 12 48 -19 62 -51 9 -23 21 -35 33 -35 10 0 27 -9 37 -20 21 -23
57 -26 73 -7 9 10 4 12 -22 9 -21 -2 -37 2 -45 12 -8 9 -21 16 -31 16 -11 0
-29 18 -43 43 -14 24 -33 49 -41 56 -8 7 -20 28 -27 48 -11 34 -10 36 37 79
27 24 52 43 56 44 4 0 16 -10 27 -22 18 -19 24 -20 45 -8 14 7 36 10 51 6 19
-5 25 -3 20 5 -5 7 -24 9 -52 6 -36 -4 -49 -1 -64 14 -26 26 -33 24 -73 -18
-20 -21 -36 -32 -36 -24 0 25 41 81 60 81 10 0 20 5 22 12 3 8 25 3 72 -16 38
-15 70 -25 72 -23 2 2 -21 14 -51 26 -30 13 -55 29 -55 37 0 20 11 18 64 -12
26 -15 49 -24 52 -21 3 3 -17 22 -43 43 -26 21 -67 53 -90 71 -49 39 -97 101
-70 90 11 -4 14 -2 10 9 -10 27 14 14 44 -23 17 -21 52 -54 79 -72 42 -30 39
-25 -26 36 -71 68 -74 72 -58 89 17 17 19 17 50 -6 89 -64 100 -70 51 -25 -55
49 -67 71 -34 62 14 -3 18 -1 14 9 -8 21 10 17 43 -8 l29 -23 -18 25 c-22 31
-21 37 2 45 11 3 22 13 25 21 13 33 -26 22 -102 -30 -117 -79 -196 -95 -222
-45 -13 23 14 88 57 140 37 43 47 35 18 -14 -40 -69 -30 -104 27 -90 32 8 168
110 168 127 0 7 -9 21 -20 31 -11 10 -20 24 -20 30 0 7 -6 18 -14 24 -12 10
-15 6 -21 -21 -15 -76 -37 -140 -45 -132 -22 24 -52 154 -54 240 -2 89 -3 91
-45 152 -44 62 -55 74 -45 48 3 -7 -6 -30 -20 -51 -21 -30 -26 -50 -26 -96 0
-32 -4 -60 -9 -63 -17 -11 -121 150 -121 187 0 7 20 42 45 77 25 35 45 69 45
74 0 6 -11 -5 -23 -25 -29 -46 -63 -89 -72 -89 -12 0 7 45 41 98 36 55 37 72
4 72 -23 0 -44 29 -76 107 -13 32 -24 50 -24 41 0 -25 29 -97 57 -138 25 -37
30 -55 12 -44 -6 3 -15 1 -19 -6 -12 -20 -77 56 -100 117 -22 58 -27 142 -9
160 7 7 0 20 -25 44 -19 19 -56 54 -81 77 -43 42 -55 62 -36 62 5 0 -2 23 -16
51 l-24 52 -20 -32 c-10 -17 -23 -31 -28 -31 -5 0 -12 37 -17 82 -7 74 -8 79
-16 48 -10 -44 -1 -143 18 -189 21 -50 10 -49 -21 2 -14 25 -33 80 -42 122
l-15 77 44 42 c25 22 64 73 87 112 23 40 51 80 61 89 23 21 26 53 6 61 -28 11
-70 85 -71 125 -1 45 7 50 23 14 13 -28 93 -118 99 -111 2 2 -12 25 -32 51
-35 46 -42 75 -19 82 6 2 17 -9 23 -26 12 -28 61 -82 61 -67 0 4 -9 19 -20 33
-11 15 -18 28 -15 31 3 3 12 -4 21 -16 22 -32 35 -27 71 25 32 47 32 47 12 66
-26 25 -13 44 14 20 22 -18 22 -18 5 3 -28 32 -23 50 8 29 32 -21 57 -5 27 16
-11 8 -23 21 -28 29 -7 12 -3 11 18 -2 41 -28 54 -21 22 12 -16 17 -24 30 -17
30 6 0 14 -4 17 -10 10 -16 40 -12 58 8 16 17 15 21 -3 58 -11 22 -30 41 -42
44 -12 3 -30 18 -41 33 -18 23 -19 30 -7 51 12 23 10 29 -15 61 -15 20 -37 40
-50 45 -13 5 -28 17 -34 27 -13 23 -14 8 -1 -37 14 -48 -2 -60 -34 -24 -37 43
-51 80 -39 107 8 17 7 30 -3 48 -26 46 -11 96 21 69 8 -6 16 -21 18 -33 4 -18
5 -17 6 6 1 17 7 27 16 27 24 0 30 29 10 44 -14 10 -17 23 -13 65 9 89 32 84
31 -7 0 -31 2 -42 4 -24 8 59 20 33 26 -55 3 -49 10 -99 15 -113 7 -18 8 -2 4
53 -3 53 -1 77 7 77 6 0 11 -9 11 -20 0 -12 7 -20 16 -20 13 0 15 -7 9 -40 -6
-35 -3 -44 17 -64 12 -12 49 -66 81 -120 32 -53 66 -100 74 -103 21 -8 58 36
43 51 -14 14 -13 116 1 116 6 0 25 -9 42 -21 l32 -21 -32 31 c-18 17 -33 33
-33 35 0 10 98 36 113 31 10 -4 20 1 27 14 9 17 8 21 -6 21 -18 0 -90 68 -81
77 4 3 29 -9 56 -27 28 -17 55 -29 61 -25 16 10 12 19 -12 30 -39 18 -33 35
11 35 22 0 42 3 44 8 3 4 -19 5 -49 4 -34 -3 -54 0 -54 7 0 6 17 11 38 12 20
0 55 9 77 20 41 20 38 20 -33 -2 -40 -12 -72 -8 -72 9 0 5 27 21 60 37 33 16
58 30 56 33 -2 2 -18 -4 -35 -12 -42 -22 -46 -21 -46 18 0 41 4 46 47 56 l33
8 -34 1 c-20 1 -43 -6 -53 -16 -17 -15 -20 -15 -34 -1 -23 23 -13 32 57 53 83
26 62 30 -26 6 -71 -20 -106 -18 -64 4 13 7 42 16 64 19 67 11 69 23 4 18 -73
-5 -73 6 1 43 26 13 63 43 83 65 36 42 87 61 115 42 20 -14 1 -39 -65 -87 -75
-54 -76 -62 -4 -25 34 16 61 34 61 38 1 4 10 18 20 31 15 17 26 22 45 17 41
-10 29 -29 -47 -79 -89 -57 -78 -62 16 -7 37 22 74 40 80 40 15 0 36 21 36 35
0 7 -17 17 -37 23 -51 16 -151 74 -136 79 7 2 22 -1 33 -7 37 -20 33 -4 -5 18
-33 20 -47 42 -25 42 5 0 47 -15 92 -34 122 -50 123 -50 147 -25 27 29 27 31
-9 52 -17 10 -30 22 -30 27 0 7 63 106 76 119 2 3 14 -5 27 -16 44 -39 51 -39
44 0 -12 79 31 142 113 165 28 8 30 10 11 11 -13 1 -48 -12 -78 -29 -64 -36
-73 -37 -103 -5 -13 14 -33 25 -46 25 -12 0 -27 7 -35 16 -7 8 -25 22 -41 30
-16 8 -28 23 -28 34 0 27 15 25 54 -5 18 -14 46 -25 62 -25 16 0 43 -9 59 -20
35 -23 67 -25 103 -6 15 8 41 19 57 25 45 17 94 66 159 163 l58 86 -25 56
c-14 31 -30 56 -36 56 -21 0 -23 -24 -6 -82 21 -68 14 -107 -23 -123 -12 -5
-22 -18 -22 -28 0 -23 -93 -117 -117 -117 -10 -1 -29 -7 -43 -15 -35 -20 -73
-18 -103 5 -14 11 -39 20 -56 20 -42 0 -121 71 -121 109 0 31 -7 41 -42 64
-33 21 -35 48 -9 91 20 31 20 32 -1 64 -24 38 -43 40 -69 10 -23 -29 -23 -37
-1 -54 15 -12 10 -13 -38 -14 -56 0 -130 27 -190 70 -38 27 -59 26 -34 -1 40
-45 94 -71 202 -99 23 -6 40 -15 37 -20 -4 -6 4 -10 17 -10 22 -1 22 -1 5 -14
-18 -14 -18 -14 0 -19 10 -3 -2 -6 -27 -7 l-45 -2 45 -9 c98 -20 97 -20 75
-29 -19 -8 -18 -9 4 -9 17 -1 22 -5 17 -17 -3 -9 -6 -18 -6 -20 0 -8 -105 -4
-145 6 -26 6 -52 22 -75 47 l-35 38 35 5 35 5 -43 13 c-28 9 -68 37 -122 87
-47 45 -88 75 -101 75 -16 0 -19 -4 -14 -17 4 -10 13 -37 21 -60 11 -37 11
-43 -1 -43 -12 0 -37 26 -94 100 -41 53 -30 8 19 -76 89 -156 110 -239 68
-268 -35 -24 -67 -19 -99 15 -42 45 -109 185 -129 270 -17 76 -39 106 -32 45
7 -58 -4 -63 -28 -13 -12 26 -26 47 -31 47 -12 0 -12 0 17 -66 50 -112 41
-204 -16 -174 -27 15 -66 98 -81 173 -7 32 -15 60 -19 62 -4 2 -13 -36 -20
-85 -17 -121 -8 -262 24 -370 13 -47 21 -89 16 -94 -33 -33 -91 116 -104 269
-6 66 6 234 20 269 5 12 0 16 -19 16 -16 0 -26 -7 -29 -18 -4 -15 -12 -18 -37
-14 -17 2 -38 -1 -46 -8 -12 -10 -16 -7 -25 16 -8 19 -14 24 -21 17 -8 -8 -8
-17 0 -31 6 -11 11 -31 11 -43 0 -22 2 -21 34 10 33 32 34 32 65 17 19 -10 31
-24 31 -36 0 -25 -8 -25 -35 0 l-22 20 -31 -50 c-45 -73 -82 -64 -82 20 -1 42
-2 44 -15 26 -8 -11 -15 -30 -15 -43 0 -13 -7 -26 -15 -29 -23 -9 -18 -23 11
-34 14 -6 28 -19 31 -30 3 -13 14 -20 29 -20 40 0 27 -17 -18 -23 -33 -5 -49
-2 -70 13 -35 25 -38 25 -38 -4 0 -16 -11 -34 -31 -49 l-31 -24 176 -169 c97
-94 176 -173 176 -177 0 -25 -46 12 -188 153 -89 88 -167 160 -174 160 -6 0
-8 -3 -5 -7 4 -4 -5 -20 -20 -37 l-28 -31 32 29 c27 24 35 27 48 16 22 -18 19
-24 -21 -55 -33 -26 -38 -27 -49 -12 -19 26 -25 9 -18 -54 7 -69 -11 -99 -58
-99 -15 0 -31 -4 -34 -10 -8 -13 26 -13 60 0 17 6 32 26 46 57 18 42 22 46 31
30 13 -23 -5 -68 -45 -114 -26 -30 -35 -33 -86 -34 -49 -1 -52 -2 -26 -10 52
-15 98 5 150 67 31 36 51 52 57 46 16 -16 -2 -38 -81 -103 -70 -57 -75 -59
-131 -59 -54 0 -58 -2 -69 -29 -7 -17 -10 -43 -6 -65 7 -34 -5 -50 -20 -26
-11 18 -25 10 -25 -14 0 -15 -7 -27 -19 -31 -10 -3 -21 -13 -25 -23 -3 -9 -12
-26 -20 -37 -15 -19 -13 -20 30 -20 42 0 49 -4 88 -48 22 -26 45 -47 49 -47 5
0 1 7 -7 16 -37 36 -8 80 46 70 29 -5 35 -2 50 24 20 35 54 40 88 12 23 -18
23 -19 7 -67 -10 -27 -17 -60 -17 -75 0 -14 -7 -36 -16 -48 -15 -22 -20 -23
-109 -16 -86 6 -94 5 -113 -14 -29 -29 -22 -44 56 -124 l66 -67 -20 -48 c-25
-62 -59 -70 -104 -24 -34 33 -36 49 -15 90 l14 29 -36 -1 c-27 -1 -41 5 -59
27 -32 36 -30 49 11 83 l34 29 -46 34 c-26 19 -50 46 -53 60 l-6 25 -12 -22
c-10 -18 -10 -27 -1 -42 10 -15 8 -26 -14 -64 -28 -48 -121 -137 -142 -137
-12 0 -42 67 -33 74 1 1 24 14 49 29 44 25 80 57 63 57 -4 0 -18 -10 -31 -22
-25 -23 -31 -11 -12 24 9 16 8 19 -2 13 -9 -6 -10 2 -5 34 4 28 2 48 -7 61
-12 17 -14 14 -30 -30 -22 -62 -96 -144 -158 -176 -27 -13 -49 -21 -49 -17 0
4 15 22 33 41 29 32 30 33 5 18 -24 -16 -29 -16 -50 -2 -25 16 -119 40 -155
39 -18 0 -20 3 -13 21 7 18 15 21 64 19 38 -1 69 -9 92 -23 42 -27 64 -20 64
19 0 16 9 48 20 72 24 54 25 90 3 136 -19 41 -77 72 -134 73 -20 0 -42 7 -49
15 -14 17 -46 20 -55 5 -3 -6 1 -7 9 -4 9 3 24 3 34 -1 15 -6 15 -8 -5 -16
-15 -5 -21 -14 -17 -24 4 -10 13 -14 23 -9 9 3 37 9 62 11 104 12 166 -73 125
-172 -16 -38 -59 -70 -78 -59 -10 5 -11 4 0 -7 6 -7 12 -18 12 -24 0 -5 -7 -1
-15 9 -8 10 -12 23 -9 27 5 8 -73 149 -82 149 -3 0 5 -19 17 -42 16 -32 18
-39 6 -29 -21 17 -77 128 -77 153 0 10 -4 18 -10 18 -5 0 -10 -20 -10 -45 0
-25 -3 -45 -8 -45 -17 0 -52 32 -52 48 1 35 73 97 120 103 19 3 26 11 28 31 3
23 9 28 40 31 20 3 3 4 -38 4 -61 -1 -74 2 -72 13 7 32 36 41 115 38 42 -2 77
0 77 3 0 4 -22 15 -50 25 -47 17 -65 33 -37 35 6 0 3 4 -8 8 -19 8 -18 9 8 21
30 14 36 30 12 30 -9 0 -18 6 -20 13 -20 56 -47 124 -54 135 -6 10 -22 -1 -64
-43 -31 -30 -71 -62 -89 -70 -27 -12 -29 -14 -11 -15 27 0 41 -20 16 -21 -10
-1 2 -7 26 -15 61 -19 71 -30 71 -79 0 -57 -26 -87 -98 -113 -70 -26 -95 -27
-113 -6 -26 31 -69 45 -135 43 -70 -3 -82 2 -59 21 8 7 15 22 15 34 0 12 5 27
11 33 16 16 -25 27 -49 14 -19 -10 -80 -4 -157 15 -80 19 -117 64 -52 64 l32
1 -34 15 c-50 21 -28 39 29 24 54 -15 63 -7 10 9 -42 12 -57 37 -17 28 154
-36 183 -40 253 -30 137 20 249 94 300 200 21 41 24 57 15 66 -9 9 -16 9 -30
0 -11 -7 -42 -15 -69 -19 -66 -8 -152 28 -177 76 -19 37 -14 49 12 29 15 -11
15 -10 -1 9 -25 28 -19 28 39 -5 37 -20 61 -26 107 -26 33 1 62 4 66 7 8 9
-34 89 -58 111 -27 24 -83 30 -103 11 -28 -29 -8 -59 56 -80 57 -18 67 -36 21
-36 -74 0 -150 81 -126 135 10 21 9 25 -3 25 -9 0 -17 -14 -21 -40 -4 -22 -11
-43 -17 -47 -6 -3 -30 16 -55 43 -52 57 -49 38 6 -44 58 -85 82 -138 89 -191
5 -41 2 -52 -16 -70 -11 -11 -29 -21 -40 -21 -32 0 -90 29 -132 67 -57 52 -64
68 -41 101 31 45 33 61 11 105 -46 92 -109 124 -148 75 -12 -13 -22 -18 -31
-13 -10 6 -9 11 5 22 16 11 -1 13 -118 13 -162 0 -156 7 -103 -133 29 -75 31
-89 19 -94 -28 -11 -47 12 -80 93 -39 94 -44 85 -8 -14 14 -38 25 -72 25 -76
0 -3 -11 -6 -25 -6 -30 0 -47 30 -86 150 -15 47 -28 78 -28 70 -1 -18 31 -121
53 -172 21 -48 20 -58 -4 -58 -24 0 -42 33 -79 148 l-29 87 -70 3 -70 3 49
-49 c28 -28 49 -58 49 -71 0 -11 -3 -21 -6 -21 -4 0 -31 20 -60 45 -28 25 -57
45 -62 45 -6 0 -7 -15 0 -42 5 -23 8 -50 6 -60 -3 -16 -8 -14 -51 14 -26 17
-50 29 -52 26 -2 -2 0 -44 5 -93 5 -49 7 -91 5 -94 -3 -2 -47 36 -98 86 -50
49 -98 92 -106 95 -20 6 -6 38 16 38 10 0 47 -30 82 -67 l64 -68 -6 40 c-3 22
-9 68 -13 103 -7 67 -16 81 -39 62 -8 -7 -45 -14 -82 -16 -65 -4 -67 -4 -38
11 l30 14 -47 1 c-41 0 -47 -3 -56 -27z m848 -9 c0 -8 -9 -14 -20 -14 -22 0
-26 10 -8 28 13 13 28 7 28 -14z m2870 -119 c93 -110 120 -152 120 -189 0 -62
-44 -74 -102 -26 -29 24 -48 58 -97 173 -34 79 -61 155 -61 168 0 22 1 22 36
-12 20 -18 66 -70 104 -114z m-3510 116 c0 -14 -30 -22 -105 -28 -83 -7 -80
10 5 25 74 13 100 14 100 3z m778 -9 c2 -6 -34 -30 -79 -53 -78 -39 -83 -40
-96 -23 -17 23 -13 27 77 63 77 31 91 33 98 13z m86 -1 c9 -15 -23 -36 -36
-23 -5 5 -7 15 -4 21 9 13 33 14 40 2z m-56 -41 c2 -14 -142 -110 -166 -110
-16 0 -23 32 -10 47 17 20 140 83 158 80 8 -1 16 -9 18 -17z m85 -4 c8 -20
-20 -43 -35 -28 -14 14 -3 42 16 42 7 0 16 -6 19 -14z m2063 -23 c9 -20 24
-73 34 -117 10 -45 19 -69 19 -53 1 27 23 38 36 17 3 -5 12 -7 19 -4 17 7 21
-5 36 -99 13 -76 8 -106 -10 -77 -8 13 -10 12 -10 -2 0 -41 -32 -9 -51 51 -5
16 -6 2 -3 -39 5 -60 4 -64 -11 -45 -15 18 -15 17 -8 -15 6 -32 5 -34 -10 -22
-38 31 -77 198 -77 326 0 54 9 116 17 116 2 0 11 -17 19 -37z m-2719 -5 c36
-35 41 -48 18 -48 -11 0 -15 -11 -15 -40 0 -35 -3 -40 -22 -40 -13 1 -34 7
-48 15 -37 21 -40 19 -40 -30 0 -52 -15 -60 -24 -12 -14 82 -18 137 -9 137 5
0 31 -16 57 -36 25 -21 49 -34 52 -31 4 3 1 26 -5 51 -19 78 -14 83 36 34z
m603 -3 c16 -19 12 -24 -75 -84 -76 -53 -105 -59 -105 -22 0 13 25 35 78 69
42 28 80 51 83 51 4 1 12 -6 19 -14z m-837 -125 c50 -55 77 -93 77 -108 0 -13
-4 -22 -9 -20 -5 2 -41 37 -80 79 -46 50 -73 88 -78 109 -3 20 -2 31 4 29 5
-2 44 -42 86 -89z m874 74 c4 -13 -135 -134 -154 -134 -7 0 -13 10 -13 23 1
15 21 38 68 74 65 51 91 60 99 37z m80 0 c3 -8 -1 -22 -9 -30 -13 -13 -16 -13
-28 0 -10 13 -10 19 0 31 16 19 29 19 37 -1z m2197 -73 c24 -75 46 -185 37
-193 -4 -4 -17 -1 -29 7 -37 27 -64 155 -46 222 9 32 19 21 38 -36z m-2244 34
c17 -20 5 -42 -60 -114 l-48 -53 -31 18 c-17 10 -31 21 -31 25 0 9 142 139
151 139 4 0 12 -7 19 -15z m-500 -52 c0 -28 -84 -99 -162 -137 -66 -33 -178
-59 -178 -42 0 18 36 75 69 109 51 54 85 69 176 77 44 4 83 8 88 9 4 0 7 -7 7
-16z m40 -38 c-70 -113 -282 -215 -385 -186 l-30 8 25 10 c14 6 52 16 85 22
88 16 178 65 254 136 69 66 88 70 51 10z m150 43 c0 -7 -4 -19 -9 -27 -8 -13
-15 -12 -50 4 -22 10 -38 22 -35 26 9 14 94 11 94 -3z m108 -69 c34 -37 62
-73 62 -79 0 -21 -27 -9 -88 40 -54 45 -62 55 -62 85 0 45 9 40 88 -46z m556
71 c29 -10 35 -30 10 -30 -23 0 -55 20 -49 31 8 11 8 11 39 -1z m1476 -30 l22
-19 -25 -12 c-22 -10 -31 -9 -52 5 -29 19 -32 33 -7 39 32 9 39 7 62 -13z
m-1310 5 c0 -35 -92 -130 -157 -163 -35 -18 -126 -42 -158 -42 -25 0 -16 17
13 25 l27 8 -25 7 -25 7 30 7 c127 29 171 51 222 110 21 25 46 45 56 46 9 0
17 -2 17 -5z m1210 -29 c-1 -17 -49 -48 -66 -42 -22 8 -17 32 12 55 21 16 30
18 40 10 8 -6 14 -17 14 -23z m-2095 12 c28 -12 29 -16 15 -38 -8 -13 -14 -13
-45 4 -60 33 -34 63 30 34z m131 -74 c59 -52 79 -84 54 -84 -20 0 -139 95
-140 111 0 15 8 29 18 29 2 0 33 -25 68 -56z m-166 31 c29 -15 33 -45 5 -45
-19 0 -66 40 -60 51 8 13 22 11 55 -6z m521 -15 c26 -25 30 -36 27 -72 -2 -23
-9 -43 -15 -46 -13 -4 -17 3 -27 50 -9 40 -64 56 -113 31 -48 -23 -69 -54 -88
-128 -30 -116 -10 -235 53 -327 86 -125 274 -166 355 -77 48 52 20 109 -53
109 -46 0 -75 -21 -102 -73 -18 -36 -22 -39 -28 -22 -6 18 -7 18 -17 1 -17
-31 -25 0 -11 46 35 118 174 166 256 89 96 -89 36 -228 -113 -261 -189 -42
-391 114 -426 330 -30 189 84 378 229 380 35 0 49 -6 73 -30z m2759 -30 c-28
-54 -38 -44 -15 16 11 29 21 42 27 36 6 -6 2 -25 -12 -52z m-1155 30 c-10 -11
-23 -20 -29 -20 -6 1 0 10 13 20 30 26 39 26 16 0z m64 1 c8 -14 4 -24 -20
-47 -27 -26 -30 -27 -46 -11 -16 16 -15 19 12 47 34 35 41 37 54 11z m89 -9
c2 -14 -2 -22 -11 -22 -19 0 -40 26 -32 40 11 18 40 6 43 -18z m967 -11 c-9
-43 -63 -119 -96 -137 -40 -20 -36 -5 10 40 22 22 49 61 61 88 23 54 36 58 25
9z m-49 -25 c-16 -42 -74 -106 -96 -106 -18 0 -10 16 26 51 20 18 45 51 56 72
26 51 35 39 14 -17z m-456 5 c5 -17 5 -31 0 -31 -8 0 -20 34 -20 59 0 21 9 8
20 -28z m-2770 9 c24 -18 24 -20 8 -36 -17 -17 -19 -17 -43 6 -47 44 -17 70
35 30z m170 -35 c70 -50 83 -64 71 -84 -18 -28 -151 69 -151 110 0 27 9 24 80
-26z m2070 27 c0 -5 -11 -19 -25 -32 -28 -27 -36 -8 -8 22 17 19 33 24 33 10z
m580 -28 c0 -19 -16 -18 -24 2 -11 27 -7 37 9 24 8 -7 15 -19 15 -26z m-2855
-7 c16 -13 17 -17 6 -31 -19 -22 -27 -20 -51 14 -36 51 -13 59 45 17z m2893 9
c3 -12 -1 -17 -10 -14 -7 3 -15 13 -16 22 -3 12 1 17 10 14 7 -3 15 -13 16
-22z m-2373 4 c3 -5 1 -10 -4 -10 -6 0 -11 -7 -11 -15 0 -18 -2 -18 -34 -3
-20 9 -23 14 -15 25 13 15 55 18 64 3z m1798 -4 c7 -17 -47 -71 -62 -62 -17
11 -13 27 11 53 24 26 43 30 51 9z m-233 -21 c-13 -14 -28 -25 -34 -25 -11 1
40 50 51 50 4 0 -4 -11 -17 -25z m1366 -12 c34 -23 50 -39 43 -44 -6 -4 -8
-12 -5 -18 9 -14 -9 -14 -37 0 -20 9 -20 8 2 -9 16 -13 22 -25 18 -36 -6 -16
-9 -16 -34 2 -39 26 -53 34 -53 28 0 -2 16 -14 35 -26 34 -21 44 -43 25 -55
-12 -7 -130 66 -130 82 0 19 18 25 42 12 22 -12 22 -11 6 8 -32 35 -12 61 22
31 12 -11 12 -10 1 4 -11 15 -8 58 5 58 2 0 29 -17 60 -37z m-3509 0 c32 -25
34 -28 17 -40 -25 -19 -28 -17 -47 22 -26 55 -22 58 30 18z m1188 -13 c22 -42
19 -89 -7 -117 -19 -21 -48 -31 -48 -18 0 3 7 22 15 42 8 19 15 55 15 79 0 24
2 44 5 44 2 0 11 -13 20 -30z m1022 14 c4 -10 -6 -27 -26 -47 -30 -30 -32 -31
-48 -14 -17 17 -17 20 15 48 37 33 50 36 59 13z m193 7 c0 -17 -48 -66 -56
-58 -4 4 5 21 21 37 31 33 35 35 35 21z m989 -13 c-10 -19 -53 -88 -66 -107
-2 -2 -6 -2 -9 2 -8 8 64 127 77 127 6 0 5 -10 -2 -22z m-3440 -17 c26 -35 26
-47 4 -55 -22 -9 -43 18 -43 56 0 36 13 36 39 -1z m2501 -9 c0 -19 -57 -62
-73 -56 -24 9 -21 24 9 56 21 21 31 25 45 17 11 -5 19 -13 19 -17z m360 8 c37
-27 72 -83 64 -104 -10 -25 -26 -16 -78 42 -38 43 -45 57 -35 68 15 18 16 18
49 -6z m293 4 c57 -19 131 -83 160 -138 17 -32 22 -58 22 -118 0 -70 -3 -80
-31 -120 -64 -88 -192 -125 -265 -75 -76 51 -98 130 -59 207 36 70 126 110
181 79 l24 -13 -30 -7 c-30 -7 -30 -7 -3 -8 42 -2 42 -19 -1 -26 -79 -13 -112
-94 -57 -142 95 -81 198 71 137 202 -39 84 -116 128 -220 127 -60 -1 -73 10
-26 21 17 4 16 5 -5 6 -20 1 -22 3 -10 11 23 15 131 12 183 -6z m-3193 -59 c0
-22 -24 -40 -40 -30 -16 10 -22 65 -9 81 12 14 15 14 31 -6 10 -12 18 -32 18
-45z m1230 51 c0 -8 -7 -16 -15 -20 -17 -6 -18 -4 -9 18 8 20 24 21 24 2z
m1071 -38 c-18 -16 -36 -27 -39 -24 -9 10 50 66 61 59 6 -3 -4 -19 -22 -35z
m-2366 -20 c8 -34 -5 -48 -42 -48 -15 0 -23 6 -24 18 0 14 -2 13 -9 -4 -9 -23
-36 -38 -51 -28 -13 8 -1 65 18 84 13 13 16 13 29 -4 12 -17 14 -17 14 -3 0
21 31 39 47 26 6 -6 15 -24 18 -41z m2906 25 c35 -30 89 -100 89 -116 0 -14
-32 16 -92 86 -53 60 -51 75 3 30z m-2704 -3 c-35 -51 -133 -102 -185 -98 -36
3 -34 5 73 60 61 31 114 57 118 57 5 1 2 -8 -6 -19z m183 13 c0 -5 -17 -16
-38 -25 -36 -18 -33 -18 18 -4 l25 7 -25 -21 -24 -22 37 7 c59 11 43 -8 -23
-27 -145 -43 -227 -211 -175 -358 23 -66 100 -165 161 -209 31 -22 84 -50 120
-63 35 -12 64 -27 64 -32 0 -9 -50 -3 -85 10 -17 6 -16 3 5 -15 25 -22 23 -23
-27 -5 -10 3 -4 -3 12 -15 42 -29 11 -28 -66 4 -201 81 -315 247 -307 445 3
68 1 79 -12 74 -35 -16 -86 -16 -99 0 -19 23 -17 94 3 114 22 23 43 3 27 -26
-14 -27 5 -72 30 -72 20 0 43 35 34 50 -11 18 -26 10 -20 -10 8 -24 -16 -28
-34 -6 -20 23 4 56 39 56 22 0 33 -7 44 -27 8 -16 15 -23 16 -16 0 23 81 113
125 139 69 40 175 69 175 47z m2211 -36 c-17 -17 -34 -28 -37 -24 -10 10 47
68 59 60 5 -3 -5 -19 -22 -36z m-2791 7 l0 -25 24 28 c22 25 25 26 32 10 11
-30 -9 -82 -34 -85 -17 -3 -22 2 -23 20 l0 23 -9 -22 c-9 -22 -44 -32 -54 -15
-6 10 42 92 55 92 5 0 9 -12 9 -26z m2626 11 c6 -15 -42 -64 -63 -65 -25 0
-24 23 3 51 30 32 52 37 60 14z m1024 -20 c-14 -16 -40 -20 -40 -6 0 13 44 40
48 30 2 -6 -2 -16 -8 -24z m-2170 16 c0 -5 -7 -11 -15 -15 -15 -5 -20 5 -8 17
9 10 23 9 23 -2z m1623 -46 c75 -73 83 -90 55 -109 -21 -15 -25 -13 -87 47
-71 67 -79 80 -61 102 20 24 35 18 93 -40z m-253 33 c0 -16 -41 -58 -56 -58
-24 0 -26 22 -3 46 24 25 59 33 59 12z m565 -19 c48 -17 47 -24 -5 -19 -29 2
-76 25 -86 41 -7 12 3 10 91 -22z m-82 -3 c26 -14 72 -28 102 -31 30 -4 55
-11 55 -16 0 -17 -103 2 -157 28 -29 13 -53 29 -53 34 0 12 -2 13 53 -15z
m614 8 c6 -17 -75 -134 -92 -134 -24 0 -18 19 26 87 39 59 58 72 66 47z
m-1306 -12 c-13 -25 -38 -45 -51 -40 -5 1 1 15 15 31 30 31 51 37 36 9z m1129
-19 c58 -37 73 -57 48 -66 -20 -6 -127 73 -121 89 7 19 5 19 73 -23z m-762
-13 c54 -42 122 -124 122 -146 0 -28 -27 -13 -63 36 -21 28 -60 67 -87 86 -50
36 -56 44 -43 57 11 12 20 8 71 -33z m-321 14 c4 -10 -6 -27 -26 -47 -29 -30
-32 -30 -48 -14 -16 16 -15 18 12 47 32 33 53 38 62 14z m203 -1 c0 -20 -28
-53 -47 -53 -20 0 -16 21 9 47 25 27 38 29 38 6z m431 -22 l23 -18 -22 -7
c-12 -4 -22 -12 -22 -17 0 -5 -7 -9 -15 -9 -7 0 -18 -8 -24 -17 -8 -14 -12
-15 -25 -4 -21 18 -20 33 5 65 24 31 48 33 80 7z m419 -13 c27 -18 50 -39 50
-46 0 -10 -5 -10 -22 -1 -46 24 -98 62 -98 70 0 16 20 9 70 -23z m-3070 -4 c0
-20 -68 -86 -84 -81 -25 8 -15 36 25 66 49 35 59 38 59 15z m2015 -14 c-16
-16 -31 -28 -33 -25 -7 7 39 55 52 55 5 0 -3 -13 -19 -30z m317 -19 c29 -27
61 -63 71 -80 l19 -32 -78 -79 c-43 -44 -81 -80 -86 -80 -4 0 -42 41 -84 92
l-77 92 74 68 c41 37 82 67 91 68 9 0 40 -22 70 -49z m-421 13 c17 -21 2 -30
-63 -38 -71 -10 -92 10 -40 38 36 20 86 20 103 0z m163 7 c6 -10 -49 -61 -65
-61 -17 0 -9 32 14 51 24 20 43 24 51 10z m-1874 -18 c35 -6 110 -75 110 -99
0 -21 -31 -17 -37 5 -5 18 -88 46 -123 41 -30 -5 -40 0 -40 20 0 19 24 39 46
40 6 0 26 -3 44 -7z m200 -15 c0 -7 -9 -24 -20 -38 l-20 -25 0 26 c0 24 16 49
32 49 4 0 8 -6 8 -12z m1705 -48 c-18 -20 -55 -28 -55 -11 0 5 12 18 28 29 33
25 54 12 27 -18z m-172 19 c49 -26 43 -50 -11 -43 -68 9 -82 14 -82 28 0 26
56 34 93 15z m-143 -14 c30 -16 60 -61 60 -90 0 -16 -30 -66 -56 -92 -7 -7
-29 -13 -48 -13 -20 0 -53 -9 -73 -20 -21 -11 -55 -20 -76 -20 -30 0 -40 5
-49 25 -15 34 6 75 39 75 23 0 23 1 8 31 -15 28 -15 33 0 55 24 37 61 32 79
-10 24 -57 77 -71 90 -23 6 25 -16 53 -33 43 -17 -11 -13 -26 4 -20 10 4 15 0
15 -11 0 -28 -43 -14 -54 17 -8 22 -6 32 9 48 22 24 46 25 85 5z m1008 -22
c-5 -26 -38 -29 -38 -4 0 15 6 21 21 21 14 0 19 -5 17 -17z m-2938 -10 c0 -10
-19 -31 -41 -46 -69 -49 -90 -11 -23 42 33 26 64 27 64 4z m350 -3 c-20 -13
-40 -13 -40 0 0 6 12 10 28 10 21 0 24 -2 12 -10z m-24 -65 c45 -63 53 -93 18
-64 -36 29 -89 129 -70 129 3 0 26 -29 52 -65z m644 44 c-14 -25 -34 -33 -57
-24 -16 6 -16 8 6 26 13 10 32 19 42 19 17 0 18 -3 9 -21z m-815 0 c7 -11 -45
-65 -126 -131 -48 -40 -69 -47 -69 -24 0 12 167 164 182 166 4 0 10 -5 13 -11z
m216 -3 c-10 -12 -8 -13 8 -9 26 7 27 -13 2 -27 -26 -13 -31 -13 -31 4 0 8 -5
16 -12 18 -18 6 1 28 24 28 17 0 18 -3 9 -14z m1880 -19 c47 -36 131 -153 127
-177 -6 -28 -25 -15 -85 60 -33 41 -72 86 -86 99 -23 21 -27 51 -7 51 5 0 28
-15 51 -33z m449 3 c0 -11 -4 -20 -9 -20 -14 0 -23 18 -16 30 10 17 25 11 25
-10z m-1840 -45 c0 -64 -14 -72 -31 -16 -13 44 -7 71 16 71 12 0 15 -12 15
-55z m-866 3 l-29 -31 38 28 c45 34 50 17 5 -19 -30 -23 -33 -24 -42 -8 -5 9
-13 20 -18 23 -5 3 -2 12 7 19 13 11 14 10 8 -6 -6 -16 -4 -16 21 4 40 31 45
27 10 -10z m416 7 c-13 -16 -40 -21 -40 -7 0 10 42 32 49 26 2 -2 -2 -10 -9
-19z m2153 -16 c-30 -31 -51 -14 -22 17 16 17 26 21 33 14 7 -7 4 -17 -11 -31z
m-2389 22 c4 -5 -22 -34 -56 -65 -34 -31 -58 -56 -54 -56 4 0 31 20 59 45 29
25 56 44 60 42 5 -1 16 -15 25 -30 17 -28 16 -29 -8 -47 -14 -10 -34 -25 -45
-33 -17 -13 -18 -18 -7 -41 6 -14 17 -26 24 -26 9 0 9 3 0 12 -18 18 -14 46 7
58 14 7 21 6 24 -3 3 -6 6 -2 6 11 1 24 21 32 21 8 0 -25 -12 -46 -26 -46 -8
0 -14 -7 -14 -15 0 -12 8 -10 37 10 21 14 44 25 52 25 18 0 51 -29 51 -45 0
-19 -120 -97 -141 -92 -10 3 -17 1 -13 -4 11 -18 41 -8 99 34 83 60 82 59 105
47 19 -10 13 -17 -76 -86 -53 -41 -103 -74 -109 -74 -24 0 -195 196 -195 223
0 15 145 157 160 157 5 0 11 -4 14 -9z m2029 -19 c53 -43 118 -126 131 -169 9
-30 -4 -29 -53 1 -32 21 -38 29 -34 50 7 34 -13 57 -41 50 -17 -4 -26 3 -44
34 -38 69 -21 83 41 34z m-1382 -29 c10 -37 10 -48 0 -51 -7 -2 -20 -13 -30
-24 -18 -19 -19 -19 -25 8 -5 20 -3 30 8 36 18 10 21 43 6 53 -13 8 -3 25 14
25 8 0 19 -21 27 -47z m1816 11 c3 -8 -4 -25 -18 -40 -20 -21 -25 -22 -37 -10
-12 12 -12 17 3 40 19 29 43 34 52 10z m-2222 -4 c-3 -5 -10 -10 -16 -10 -5 0
-9 5 -9 10 0 6 7 10 16 10 8 0 12 -4 9 -10z m1650 -85 c42 -64 80 -152 90
-210 9 -50 -7 -37 -25 20 -18 57 -67 152 -106 208 -39 54 -41 62 -15 48 10 -6
35 -36 56 -66z m53 21 c54 -48 89 -139 77 -196 -10 -44 -21 -37 -44 25 -25 66
-66 149 -92 187 -11 14 -19 29 -19 33 0 9 47 -20 78 -49z m583 -118 c104 -95
189 -176 189 -180 0 -22 -35 4 -168 126 -176 160 -241 226 -223 226 7 0 97
-78 202 -172z m-2102 148 c10 -11 8 -16 -9 -21 -26 -8 -35 -1 -27 20 8 19 21
19 36 1z m2092 -5 l24 -19 -29 -31 c-23 -23 -33 -28 -43 -20 -18 16 -16 29 10
58 l22 26 -26 -22 c-34 -31 -48 -29 -19 2 28 30 31 30 61 6z m-205 -2 c3 -6
-7 -25 -25 -42 -24 -25 -33 -29 -43 -19 -9 9 -6 18 17 42 31 33 40 36 51 19z
m-246 -37 c0 -23 -19 -42 -41 -42 -24 0 -29 21 -11 43 20 23 52 22 52 -1z
m243 -17 c-26 -33 -43 -44 -43 -28 0 10 52 63 62 63 5 0 -4 -16 -19 -35z m37
-40 c-38 -39 -48 -42 -57 -19 -3 9 7 28 28 50 29 30 35 33 48 19 13 -13 11
-19 -19 -50z m189 17 c-21 -24 -20 -24 9 3 30 27 34 28 48 13 15 -15 15 -19
-6 -48 -26 -36 -48 -36 -69 2 -15 25 -14 29 9 53 32 34 40 12 9 -23z m-1787 8
l30 -30 -7 30 c-4 16 -3 30 2 30 11 0 117 -179 110 -186 -9 -9 -65 6 -77 21
-6 7 -15 32 -19 56 l-9 44 -1 -51 c-1 -66 -40 -122 -107 -154 -69 -33 -179
-34 -251 -1 -55 24 -137 103 -130 124 8 26 41 18 81 -22 49 -47 100 -71 156
-71 109 0 216 102 180 171 -10 17 -18 20 -46 16 -42 -7 -51 6 -24 33 30 30 76
26 112 -10z m-158 -12 c9 -34 7 -38 -8 -32 -17 7 -28 32 -20 45 9 16 21 10 28
-13z m1806 -1 c0 -17 -58 -73 -66 -64 -7 6 47 77 59 77 4 0 7 -6 7 -13z m-579
-13 c11 -14 8 -21 -25 -51 -43 -40 -54 -37 -36 9 24 60 38 70 61 42z m619 -28
c0 -7 -15 -27 -34 -45 l-34 -33 -12 22 c-10 19 -8 26 21 56 25 26 36 31 46 23
7 -6 13 -17 13 -23z m166 -14 c-17 -17 -26 -22 -26 -12 0 19 44 64 48 50 3 -7
-7 -24 -22 -38z m-1908 21 c6 -9 6 -29 1 -46 -26 -90 -160 -136 -250 -85 -45
25 -79 68 -55 68 8 0 18 -4 21 -10 10 -16 25 -11 18 6 -4 11 10 7 49 -15 62
-35 95 -38 144 -15 42 20 58 47 50 85 -6 32 7 39 22 12z m-839 -50 c28 -24 24
-45 -12 -67 -23 -15 -34 1 -18 27 13 20 13 21 -2 9 -17 -14 -41 -7 -32 9 4 5
1 9 -4 9 -17 0 -13 31 6 52 16 18 17 18 27 1 5 -10 21 -28 35 -40z m2041 27
c0 -13 -14 -23 -47 -34 -83 -28 -94 -20 -29 23 61 41 76 43 76 11z m774 7 c8
-12 5 -22 -14 -42 -45 -48 -78 -19 -39 34 24 33 36 35 53 8z m-512 -23 c17 -9
49 -17 72 -18 44 -2 45 -4 32 -54 -6 -26 -3 -41 17 -75 14 -23 26 -46 27 -52
2 -10 -47 -9 -83 1 -11 4 -28 -7 -49 -30 -17 -20 -35 -36 -39 -36 -4 0 -11 20
-15 45 -5 39 -12 50 -50 76 -24 16 -44 34 -44 39 0 5 18 19 40 30 35 18 40 25
40 55 0 39 8 42 52 19z m298 9 c0 -10 -52 -63 -62 -63 -5 0 4 16 19 35 26 33
43 44 43 28z m50 -35 c0 -7 -14 -27 -32 -45 -30 -31 -33 -32 -50 -17 -17 16
-16 18 13 55 26 33 34 37 50 29 10 -6 19 -16 19 -22z m176 -3 c-15 -23 -36
-34 -36 -18 0 10 43 54 48 48 3 -2 -3 -16 -12 -30z m-2436 17 c0 -19 -187
-158 -198 -147 -7 7 13 26 117 106 63 48 81 57 81 41z m377 -8 c4 -11 -77 -28
-87 -18 -3 3 4 12 15 20 22 17 66 15 72 -2z m2113 -10 c11 -13 9 -20 -17 -46
-47 -47 -77 -10 -31 39 25 27 31 28 48 7z m-2360 -158 c0 -35 -23 -79 -55
-104 -62 -49 -141 -35 -216 37 -27 26 -49 54 -48 62 0 8 44 47 97 87 l97 73
63 -65 c44 -46 62 -71 62 -90z m1934 105 c-7 -41 -26 -51 -32 -17 -4 17 26 72
34 63 3 -2 2 -23 -2 -46z m-406 18 c23 -9 50 -54 39 -65 -8 -8 -157 57 -157
68 0 5 10 6 21 3 16 -5 19 -4 14 5 -8 13 35 7 83 -11z m597 -19 c-16 -17 -33
-30 -39 -30 -5 0 5 16 24 35 18 19 36 32 39 30 2 -3 -8 -19 -24 -35z m-2603 5
c-2 -9 1 -14 7 -11 14 9 25 -14 12 -27 -9 -9 -39 -1 -70 20 -2 2 4 12 14 23
21 24 41 21 37 -5z m2843 -15 c-16 -16 -31 -28 -34 -25 -2 3 8 19 24 35 16 16
31 28 34 25 2 -3 -8 -19 -24 -35z m-171 7 c8 -13 4 -23 -19 -47 -33 -35 -38
-36 -60 -14 -15 16 -14 19 16 50 35 36 46 38 63 11z m206 -32 c-22 -23 -50
-34 -50 -18 0 4 12 20 27 35 18 19 30 25 37 18 6 -6 2 -18 -14 -35z m-910 -15
c55 -27 105 -50 112 -50 6 0 19 7 29 16 16 14 19 14 41 0 33 -21 68 -87 68
-125 0 -17 -3 -31 -6 -31 -4 0 -36 20 -73 44 -94 62 -165 100 -248 132 -69 26
-89 46 -60 57 25 11 39 6 137 -43z m-225 15 c116 -20 198 -56 334 -145 102
-66 128 -90 101 -90 -6 0 -69 34 -141 76 -167 98 -228 123 -301 124 -31 0 -59
-4 -62 -9 -3 -4 6 -6 20 -3 26 5 26 4 8 -16 -10 -12 -22 -18 -28 -15 -6 3 -1
-5 12 -19 32 -35 29 -52 -7 -34 -33 18 -91 81 -91 101 0 19 28 45 49 45 10 0
58 -7 106 -15z m-1675 -5 c0 -5 -9 -10 -20 -10 -11 0 -20 5 -20 10 0 6 9 10
20 10 11 0 20 -4 20 -10z m2620 -5 c-7 -9 -15 -13 -17 -11 -7 7 7 26 19 26 6
0 6 -6 -2 -15z m47 -11 c4 -10 -7 -29 -30 -52 -30 -30 -37 -33 -42 -19 -4 10
4 30 20 52 30 38 42 43 52 19z m-1835 -119 c26 -49 47 -98 48 -107 0 -21 -116
-148 -136 -148 -18 0 -44 40 -44 67 0 13 10 33 22 45 16 16 18 23 8 26 -7 3 0
10 19 18 25 11 31 19 31 44 0 23 -6 33 -25 42 -29 13 -32 25 -7 31 14 4 13 5
-3 6 -26 1 -45 19 -45 42 0 21 16 28 55 26 27 -2 35 -11 77 -92z m9 62 c-6 12
-11 25 -11 29 0 8 114 -1 129 -10 12 -8 -28 -128 -45 -133 -6 -2 -19 15 -29
37 -27 60 -36 59 -14 -1 31 -80 14 -69 -30 20 -47 93 -51 108 -15 66 17 -20
22 -23 15 -8z m255 -3 c-30 -21 -44 -16 -17 7 13 11 27 17 30 13 3 -3 -3 -12
-13 -20z m708 0 c56 -22 115 -64 90 -64 -5 0 9 -12 31 -27 48 -32 54 -40 48
-63 -3 -10 -10 -60 -16 -112 l-12 -93 -39 -3 c-57 -5 -118 23 -165 73 -46 50
-52 70 -18 60 19 -6 18 -3 -8 18 -16 14 -27 29 -22 33 4 4 0 16 -10 26 -24 27
-2 23 68 -13 85 -42 84 -31 -1 15 -69 37 -92 56 -69 56 8 0 8 4 -1 15 -13 16
-9 18 25 16 18 -2 18 0 -4 17 -47 38 6 56 76 27 20 -8 38 -13 40 -11 2 2 -16
12 -42 21 -44 17 -67 35 -46 35 6 0 40 -12 75 -26z m916 6 c12 -8 10 -14 -15
-40 -16 -16 -34 -30 -41 -30 -26 0 -25 23 2 51 31 32 33 33 54 19z m-2042 -18
c3 -9 -3 -13 -19 -10 -12 1 -24 9 -27 16 -3 9 3 13 19 10 12 -1 24 -9 27 -16z
m449 -7 c-4 -8 -17 -15 -29 -15 l-23 1 24 20 c26 21 37 19 28 -6z m-587 6 c0
-5 -7 -14 -15 -21 -12 -10 -15 -10 -15 2 0 8 3 18 7 21 9 10 23 9 23 -2z m806
-27 c5 -28 2 -40 -16 -59 -24 -26 -139 -90 -146 -82 -10 10 9 80 25 93 58 48
108 83 118 83 7 1 15 -15 19 -35z m-705 6 c18 0 9 -17 -15 -28 -21 -9 -23 -8
-23 14 0 18 4 24 14 20 8 -3 19 -6 24 -6z m419 -22 c11 -18 20 -47 20 -63 0
-54 -49 -99 -64 -59 -8 21 -8 139 1 147 13 13 23 7 43 -25z m-500 9 c0 -14
-20 -37 -32 -37 -12 0 -10 24 4 38 16 16 28 15 28 -1z m592 -12 c3 -13 3 -27
0 -30 -9 -9 -63 -5 -57 4 3 5 0 13 -6 17 -8 4 -4 11 12 20 35 19 46 17 51 -11z
m-460 -57 c-9 -9 -72 15 -72 26 0 2 15 13 33 25 l32 20 8 -31 c5 -18 4 -35 -1
-40z m2078 37 c39 -40 34 -49 -27 -61 -42 -8 -63 0 -63 24 0 20 36 72 49 72 4
0 23 -16 41 -35z m-161 14 c48 -17 67 -69 25 -69 -20 0 -64 45 -64 65 0 18 -1
18 39 4z m-2559 -19 c0 -5 -12 -10 -26 -10 -14 0 -23 4 -19 10 3 6 15 10 26
10 10 0 19 -4 19 -10z m122 -17 c35 -24 52 -28 116 -28 62 -1 77 -4 86 -19 30
-51 43 -61 60 -47 24 20 20 38 -14 63 -36 26 -38 46 -6 54 38 9 60 1 70 -28
24 -69 -55 -192 -156 -242 -56 -28 -88 -32 -119 -16 -23 13 -24 29 -2 91 17
46 17 50 0 66 -12 12 -39 20 -80 23 -56 5 -62 7 -71 32 -8 23 -6 32 14 53 30
32 51 32 102 -2z m585 -6 c-2 -7 -11 -13 -20 -15 -12 -3 -17 4 -17 23 0 23 2
25 21 15 11 -6 18 -17 16 -23z m-191 -6 c-1 -32 -22 -61 -42 -61 -21 0 -17 17
9 36 15 11 16 15 5 11 -21 -7 -24 13 -6 31 21 21 36 13 34 -17z m1693 8 c30
-11 44 -39 18 -39 -17 0 -57 29 -57 41 0 11 0 11 39 -2z m-2232 -13 c-3 -7 1
-25 8 -39 7 -14 11 -28 7 -31 -3 -3 2 -6 12 -6 9 0 15 -4 11 -9 -3 -6 16 -8
46 -6 42 3 49 2 39 -10 -15 -18 -130 -18 -130 1 0 7 -6 11 -12 9 -18 -7 -41
45 -28 60 5 7 7 15 4 18 -11 10 7 27 28 27 13 0 18 -5 15 -14z m1131 -11 c-2
-18 -8 -25 -22 -25 -20 0 -20 0 0 -15 17 -13 17 -14 2 -15 -12 0 -15 -5 -11
-17 5 -13 2 -15 -12 -10 -15 6 -16 5 -5 -8 19 -23 3 -31 -20 -10 -20 19 -28
41 -10 30 11 -7 11 -6 15 40 1 17 3 36 4 43 0 6 14 12 31 12 26 0 29 -3 28
-25z m252 7 l23 -18 -44 -38 c-52 -44 -169 -104 -221 -112 -34 -6 -36 -5 -31
15 3 11 9 21 14 21 5 0 6 6 3 13 -3 9 15 23 53 39 32 15 80 42 108 62 57 41
65 43 95 18z m-765 -4 c14 -6 25 -14 25 -18 0 -9 -37 -20 -65 -20 -19 1 -19 2
-3 14 13 10 15 15 6 24 -16 16 2 16 37 0z m391 -131 c34 -77 38 -176 10 -252
-49 -132 -158 -248 -292 -312 -82 -39 -157 -56 -137 -31 7 8 10 18 6 21 -3 4
-1 7 6 7 7 0 11 6 8 13 -3 9 21 26 72 50 218 105 320 312 252 513 -21 63 -20
79 5 48 13 -17 13 -16 -1 13 -22 46 -19 50 14 19 16 -15 42 -56 57 -89z m1607
72 c17 -31 24 -109 9 -109 -17 0 -52 60 -58 99 -6 36 -4 41 12 41 11 0 27 -14
37 -31z m-2704 -16 c0 15 6 27 11 27 11 0 12 -42 1 -79 l-7 -24 -17 26 c-19
29 -21 46 -10 74 6 14 9 11 14 -17 6 -31 7 -32 8 -7z m754 5 c-9 -49 -18 -53
-54 -20 l-34 31 25 10 c14 5 35 10 47 10 20 1 22 -3 16 -31z m-151 -19 c-6
-27 -14 -35 -35 -37 -35 -4 -35 13 1 26 17 7 21 11 10 11 -25 1 -22 20 5 30
29 11 30 10 19 -30z m1474 27 c3 -8 11 -13 19 -10 7 3 15 -2 18 -10 4 -9 13
-16 21 -16 8 0 16 -3 18 -7 2 -5 16 -16 33 -25 36 -20 39 -27 20 -52 -13 -18
-17 -18 -42 -5 -36 18 -53 34 -53 50 0 9 -4 8 -15 -1 -12 -10 -15 -10 -15 4 0
9 -6 15 -12 14 -8 -2 -14 11 -16 35 -3 37 13 52 24 23z m-519 -18 c17 -16 23
-32 23 -65 0 -35 6 -50 34 -80 23 -27 35 -52 40 -85 4 -27 19 -63 36 -87 29
-40 37 -75 22 -97 -10 -16 -48 -34 -70 -34 -42 0 -93 96 -62 115 20 12 9 25
-15 19 -42 -10 -74 4 -92 40 -28 60 7 126 70 126 l32 1 -42 20 c-23 12 -45 30
-49 41 -3 11 -8 18 -10 15 -2 -2 1 -18 7 -36 9 -27 8 -35 -6 -51 -10 -11 -29
-20 -42 -20 -28 0 -74 -22 -93 -45 -7 -9 -22 -21 -32 -26 -16 -8 -21 -5 -33
25 -24 58 -20 103 13 123 15 9 47 29 71 45 51 32 85 36 100 11 9 -16 10 -16
11 -2 0 20 38 69 53 69 6 0 21 -10 34 -22z m719 6 c63 -21 99 -57 83 -85 -6
-12 -8 -23 -5 -27 3 -3 6 0 6 6 0 7 5 12 10 12 6 0 10 -14 10 -31 0 -25 6 -32
37 -45 33 -14 35 -17 19 -26 -24 -14 -64 5 -76 34 -6 17 -9 18 -9 6 -1 -27 48
-60 80 -53 22 5 31 1 43 -17 35 -53 28 -135 -14 -173 -18 -16 -19 -15 -30 26
-28 102 -95 205 -198 306 -59 57 -70 72 -55 76 33 9 49 7 99 -9z m-1271 -49
c27 -69 17 -202 -19 -278 -36 -76 -117 -156 -197 -196 -58 -29 -64 -30 -70
-14 -3 10 -2 21 3 24 5 3 8 10 7 15 -2 5 36 48 83 96 106 107 139 169 145 271
8 148 17 163 48 82z m-318 21 c35 -30 26 -40 -28 -31 -39 7 -41 9 -25 21 10 7
15 17 11 23 -11 20 13 12 42 -13z m-427 -11 c0 -8 -5 -15 -11 -15 -5 0 -7 -5
-3 -11 7 -12 -12 -29 -33 -29 -16 0 -10 50 8 61 21 13 39 11 39 -6z m888 -32
c-10 -12 -14 -11 -24 9 -16 31 -7 43 17 22 15 -13 16 -20 7 -31z m598 6 c38
-56 132 -117 199 -132 l55 -11 20 -60 c11 -33 19 -60 17 -61 -1 -1 -22 -6 -47
-11 -39 -8 -45 -13 -48 -37 -7 -60 42 -75 85 -27 14 17 30 30 35 30 19 0 98
-62 98 -76 0 -24 -36 -87 -65 -114 -24 -22 -35 -25 -103 -25 -60 0 -85 5 -112
21 -85 49 -105 143 -49 227 23 34 29 54 25 72 -11 43 -86 47 -86 5 0 -25 9
-26 26 -2 12 16 14 16 30 0 20 -20 14 -41 -20 -63 -55 -36 -136 16 -136 87 0
21 7 52 15 68 l16 30 -40 0 c-30 0 -43 5 -51 19 -27 52 6 101 69 101 34 0 42
-5 67 -41z m756 -6 c32 -30 35 -43 12 -43 -16 0 -34 17 -55 53 -16 27 10 21
43 -10z m-2392 -2 c-10 -20 -30 -37 -30 -26 0 11 25 45 33 45 4 0 3 -9 -3 -19z
m40 0 c0 -13 -29 -35 -37 -28 -7 8 15 37 28 37 5 0 9 -4 9 -9z m418 -5 c-10
-7 -16 -15 -13 -18 4 -4 -49 -58 -72 -72 -14 -8 -53 10 -53 24 0 6 15 10 33
11 17 0 26 3 19 6 -16 6 3 33 24 33 8 0 13 3 13 8 -3 18 3 22 34 22 29 -1 30
-2 15 -14z m367 -76 c-13 -92 -83 -202 -167 -261 -29 -21 -81 -18 -60 3 7 7 4
16 -9 29 -26 26 -26 53 -1 40 23 -12 66 9 117 58 45 42 64 78 72 138 3 25 13
55 22 65 15 17 16 17 24 -4 5 -13 5 -43 2 -68z m-298 39 c21 -32 24 -42 13
-49 -10 -6 -10 -9 3 -11 13 -3 9 -12 -18 -44 -28 -33 -36 -37 -44 -25 -6 8
-13 11 -17 8 -3 -4 -25 2 -48 14 -39 20 -40 21 -18 31 12 6 22 16 22 23 0 10
14 13 53 10 49 -4 50 -3 20 8 -41 14 -52 26 -25 26 17 0 22 6 22 25 0 34 5 32
37 -16z m93 35 c0 -4 -9 -22 -21 -41 -23 -37 -32 -35 -62 16 l-18 31 50 0 c28
0 51 -3 51 -6z m1402 -43 c83 -53 173 -189 185 -282 l6 -39 -49 0 c-84 1 -177
57 -213 129 -26 50 -35 129 -21 180 13 50 29 52 92 12z m217 -108 c18 -29 30
-57 27 -62 -4 -5 -2 -11 4 -13 12 -4 54 -167 46 -175 -8 -8 -86 27 -86 39 0 4
5 8 11 8 8 0 7 5 -2 16 -10 13 -10 17 2 25 11 7 10 9 -5 9 -12 0 -16 5 -13 15
4 8 2 17 -4 21 -6 3 -8 12 -5 20 3 8 1 14 -5 14 -6 0 -9 6 -6 14 3 8 -1 17
-10 20 -12 5 -13 9 -4 20 10 12 8 13 -10 9 -18 -5 -21 -3 -16 11 4 10 1 19 -8
22 -7 3 -11 12 -9 19 3 8 -2 12 -13 12 -10 -1 -18 5 -18 13 0 8 -9 18 -19 23
-18 7 -18 9 4 32 l23 25 42 -43 c23 -23 57 -66 74 -94z m-2117 91 c-3 -26 -1
-35 7 -30 6 4 11 1 11 -8 0 -9 6 -13 14 -10 8 3 17 1 20 -5 4 -6 13 -8 21 -4
9 3 22 0 30 -7 13 -11 14 -10 10 3 -4 8 -2 18 4 21 12 8 51 -10 51 -23 0 -13
-62 -20 -82 -9 -12 5 -18 5 -18 -2 0 -5 -7 -10 -15 -10 -8 0 -15 4 -15 9 0 5
-9 7 -20 4 -15 -4 -20 0 -21 13 0 11 -3 14 -6 7 -10 -25 -25 -13 -21 17 2 16
0 31 -6 33 -7 2 -6 9 3 20 23 29 37 20 33 -19z m633 -27 c-9 -43 -50 -113 -71
-121 -31 -12 -36 14 -18 102 3 13 9 20 14 17 6 -4 8 -18 5 -33 -4 -23 -4 -24
4 -7 5 11 10 30 10 42 1 12 11 31 23 43 19 18 23 18 31 5 5 -9 5 -30 2 -48z
m1667 -35 c20 -33 14 -63 -11 -47 -16 9 -61 101 -54 109 9 8 39 -21 65 -62z
m-2098 37 c27 -13 26 -29 -2 -29 -25 0 -46 16 -38 29 9 14 9 14 40 0z m764
-64 c15 0 42 -66 42 -104 0 -25 -48 -121 -61 -121 -8 0 -14 22 -29 120 -13 83
-13 83 3 77 10 -4 12 4 10 27 -4 26 -2 29 9 16 7 -8 19 -15 26 -15z m252 -3
c0 -47 -22 -67 -74 -67 -40 0 -46 3 -46 22 0 29 54 73 91 73 25 0 29 -4 29
-28z m-974 -17 c3 -20 4 -39 0 -42 -9 -9 -67 48 -60 59 3 4 9 6 14 3 5 -3 11
-1 15 5 12 20 24 10 31 -25z m59 13 c25 -12 45 -25 45 -28 0 -8 -79 -45 -84
-39 -6 7 -16 89 -11 89 2 0 25 -10 50 -22z m2063 -41 c2 -27 -1 -37 -11 -37
-15 0 -31 55 -21 72 12 19 29 0 32 -35z m-2330 20 c16 6 15 -3 -5 -38 -21 -35
-29 -36 -37 -6 -11 43 -8 59 12 49 9 -5 23 -7 30 -5z m106 -14 c-10 -42 -20
-47 -38 -22 -25 36 -24 37 37 48 4 0 4 -11 1 -26z m61 -4 c19 -17 35 -35 35
-39 0 -11 -84 -30 -93 -21 -8 8 9 91 18 91 2 0 20 -14 40 -31z m-107 -24 l22
-35 -45 0 -45 0 17 35 c9 19 19 35 22 35 3 0 16 -16 29 -35z m1112 -40 c-25
-27 -40 -32 -40 -13 0 21 43 59 54 48 6 -6 2 -18 -14 -35z m-860 -10 c0 -19
-39 -25 -55 -8 -20 19 -19 30 2 42 20 10 53 -11 53 -34z m567 -57 c4 -50 2
-66 -10 -76 -13 -11 -20 -10 -41 3 -14 10 -26 25 -26 34 0 23 29 63 41 56 5
-4 9 11 9 31 0 63 21 25 27 -48z m234 41 c32 -23 59 -46 59 -50 0 -18 -28 -8
-76 26 l-49 36 -37 -42 c-21 -23 -38 -45 -38 -49 0 -3 25 -24 55 -46 53 -38
75 -64 54 -64 -16 0 -139 90 -139 102 0 15 90 128 101 128 6 0 37 -19 70 -41z
m119 -6 c0 -10 -6 -10 -25 3 -21 13 -23 19 -13 31 10 13 14 12 25 -3 7 -10 13
-24 13 -31z m-985 -3 c21 -40 19 -103 -5 -151 -24 -46 -63 -70 -83 -50 -9 10
-4 19 27 46 l39 33 -11 68 c-6 37 -9 71 -6 76 10 15 24 8 39 -22z m1499 1 c17
-19 17 -20 -3 -30 -32 -18 -51 -13 -51 12 0 41 25 50 54 18z m-539 -22 c-4 -5
-14 -5 -26 1 -11 6 -17 15 -14 21 4 5 14 5 26 -1 11 -6 17 -15 14 -21z m-880
1 c0 -18 -33 -26 -47 -12 -6 6 -7 15 -3 22 10 16 50 8 50 -10z m740 -1 c0 -7
-8 -15 -17 -17 -18 -3 -25 18 -11 32 10 10 28 1 28 -15z m43 -33 c3 -13 -1
-17 -14 -14 -11 2 -20 11 -22 22 -3 13 1 17 14 14 11 -2 20 -11 22 -22z m147
-2 c1 -12 7 -17 15 -15 64 17 76 -10 15 -33 -57 -22 -85 -57 -85 -108 0 -85
55 -134 143 -125 38 3 56 11 80 36 27 27 32 39 32 81 0 40 -5 54 -27 77 -31
32 -35 43 -15 43 6 0 22 -16 34 -34 17 -26 31 -35 55 -38 26 -2 34 -8 36 -26
2 -13 1 -31 -2 -39 -6 -14 -8 -14 -21 3 -11 15 -16 16 -26 7 -10 -10 -9 -16 2
-29 12 -14 9 -20 -24 -46 -20 -17 -37 -39 -37 -50 0 -50 -45 -78 -124 -78 -77
1 -169 65 -197 137 -30 80 6 188 80 234 49 32 66 33 66 3z m-219 5 c9 -15 -18
-40 -34 -30 -15 9 -5 41 13 41 8 0 17 -5 21 -11z m-688 -17 c3 -10 -5 -13 -29
-10 -18 2 -34 9 -37 16 -3 10 5 13 29 10 18 -2 34 -9 37 -16z m1162 -1 c12
-24 13 -68 1 -75 -5 -4 -21 -2 -35 4 -20 7 -26 17 -26 38 0 48 40 70 60 33z
m-430 -20 c-1 -29 -50 -36 -50 -7 0 22 22 37 37 25 7 -7 13 -14 13 -18z m-756
-11 c19 -7 26 -17 26 -35 0 -23 -3 -25 -22 -20 -31 10 -62 41 -54 54 9 14 17
14 50 1z m786 -14 c0 -18 -16 -29 -30 -21 -13 8 -1 35 16 35 8 0 14 -6 14 -14z
m-940 -27 c0 -18 -35 -5 -38 14 -3 16 -1 17 17 7 12 -6 21 -15 21 -21z m644
15 c22 -21 20 -57 -3 -85 -24 -29 -36 -21 -20 14 6 14 9 33 6 41 -9 22 -37 20
-37 -1 0 -15 2 -16 10 -3 8 12 10 12 16 -3 8 -21 -12 -47 -37 -47 -15 0 -19 7
-19 32 0 56 49 87 84 52z m592 -18 c73 -73 25 -179 -81 -179 -55 0 -91 23
-104 68 -22 79 26 145 106 145 38 0 50 -5 79 -34z m-395 -16 l24 -20 -30 2
c-19 2 -31 9 -33 21 -5 23 10 22 39 -3z m-693 -6 c24 -16 27 -54 6 -61 -17 -6
-64 37 -64 58 0 23 27 25 58 3z m1657 -24 c14 -16 15 -20 4 -24 -8 -2 -21 -7
-29 -9 -8 -3 -1 -6 16 -6 33 -1 60 -23 50 -40 -14 -21 -73 -23 -117 -4 -56 25
-79 50 -58 64 14 10 38 8 74 -6 17 -6 17 -5 -2 9 -32 24 -28 36 10 36 21 0 41
-8 52 -20z m-1695 -35 c28 -29 31 -37 20 -50 -7 -8 -16 -15 -20 -15 -15 0 -62
71 -56 85 8 22 19 18 56 -20z m690 20 c7 -9 10 -18 7 -21 -9 -9 -48 16 -42 27
9 13 21 11 35 -6z m60 1 c0 -20 -26 -40 -35 -26 -10 16 2 40 20 40 8 0 15 -6
15 -14z m-160 -25 c0 -40 -17 -48 -32 -16 -10 22 -9 28 3 36 23 15 29 11 29
-20z m83 -15 c33 -24 34 -31 2 -52 -23 -15 -27 -15 -50 0 -27 17 -33 54 -13
74 12 12 17 10 61 -22z m687 24 c12 -8 6 -19 -37 -62 -71 -73 -98 -133 -97
-225 0 -76 -6 -88 -24 -50 -9 19 -10 18 -5 -12 8 -44 -15 -39 -39 10 -45 86
-11 187 97 287 67 63 79 69 105 52z m-1380 -87 c0 -7 -9 -17 -19 -23 -16 -8
-23 -4 -41 25 -16 26 -20 43 -15 63 l7 27 34 -40 c18 -22 34 -45 34 -52z m526
52 c85 -50 120 -163 76 -245 -27 -49 -40 -48 -53 5 -31 122 -149 157 -251 74
-44 -35 -59 -30 -78 25 -19 60 18 108 120 156 57 26 125 21 186 -15z m302 -38
c-3 -28 -7 -32 -35 -35 -18 -2 -33 0 -33 4 0 4 12 27 26 52 22 38 28 42 36 28
5 -9 8 -31 6 -49z m642 52 c0 -6 -28 -41 -61 -77 -80 -85 -103 -137 -94 -207
5 -47 4 -53 -12 -51 -10 0 -23 10 -30 21 -19 31 -16 125 5 166 25 48 92 128
122 144 30 17 70 19 70 4z m91 -1 c1 -7 1 -20 0 -28 -2 -13 -1 -13 8 0 9 13
12 13 26 -1 14 -14 14 -19 0 -52 -22 -52 -17 -60 5 -9 13 28 26 42 38 42 28 0
32 -9 16 -38 -8 -15 -14 -35 -14 -44 0 -9 -9 -56 -21 -105 -48 -198 21 -376
178 -465 48 -27 67 -48 44 -48 -46 0 -152 92 -211 182 -55 84 -73 163 -68 292
2 67 0 98 -5 84 -5 -13 -9 -63 -10 -113 0 -75 5 -104 30 -178 l31 -88 -31 6
c-57 12 -75 31 -97 101 -30 99 -35 184 -16 293 21 118 47 181 75 181 12 0 22
-6 22 -12z m224 -57 c-7 -12 -64 -25 -73 -16 -3 3 0 10 8 15 19 12 73 13 65 1z
m-1053 -31 c1 -16 2 -38 2 -47 1 -22 -33 -19 -51 5 -17 21 -16 37 3 56 25 25
44 19 46 -14z m-82 0 c7 -13 7 -26 2 -36 -10 -18 -16 -12 -26 29 -7 32 8 37
24 7z m800 -1 c0 -11 -14 -38 -32 -60 -26 -32 -33 -51 -36 -98 -3 -47 -7 -58
-21 -57 -8 2 -20 17 -25 34 -12 42 15 112 62 164 39 43 52 47 52 17z m-1520 2
c0 -13 -29 -35 -37 -28 -7 8 15 37 28 37 5 0 9 -4 9 -9z m1860 2 c0 -12 -82
-133 -91 -133 -10 0 -22 61 -17 87 5 28 108 72 108 46z m-875 -70 c31 -20 54
-41 52 -47 -6 -18 -37 -19 -57 -1 -23 21 -100 37 -100 22 0 -7 -4 -7 -12 1 -9
9 -6 17 12 37 13 14 30 25 37 25 7 0 38 -16 68 -37z m-517 -1 c10 -7 8 -19 -8
-56 -17 -42 -23 -47 -43 -42 -12 3 -30 6 -40 6 -15 0 -16 3 -7 20 7 13 21 20
40 20 31 0 42 23 18 33 -10 4 -9 8 2 16 18 13 21 13 38 3z m332 -23 c0 -4 -12
-22 -26 -39 -25 -29 -27 -30 -45 -14 -24 22 -24 39 1 64 17 17 24 18 45 8 14
-6 25 -15 25 -19z m944 -11 c8 -47 -6 -102 -27 -106 -20 -4 -22 15 -6 88 12
58 24 64 33 18z m-1566 0 c8 -18 11 -19 11 -5 1 19 21 24 21 5 0 -9 3 -8 10 2
12 20 21 9 36 -49 15 -58 6 -101 -30 -145 -28 -34 -26 -37 -51 94 -8 47 -17
93 -19 103 -6 24 9 21 22 -5z m-12 -123 c17 -96 9 -131 -31 -141 -15 -4 -30
-3 -35 2 -8 9 -30 165 -30 217 0 16 4 26 10 22 6 -3 10 -1 10 4 0 18 18 12 23
-6 3 -11 5 -5 6 12 l2 30 16 -29 c8 -16 22 -66 29 -111z m417 93 c28 -37 16
-45 -27 -18 -36 22 -42 31 -29 44 13 12 35 2 56 -26z m276 8 c9 -11 8 -15 -5
-20 -23 -9 -24 -8 -24 14 0 23 13 26 29 6z m144 -31 c31 -25 57 -51 57 -59 0
-16 -99 -146 -111 -146 -21 0 -129 86 -126 100 6 23 100 150 112 150 5 0 36
-20 68 -45z m201 -12 c17 -112 18 -133 8 -133 -6 0 -18 10 -26 22 l-16 22 0
-24 c0 -24 0 -24 -14 -4 -20 29 -40 110 -32 131 6 14 9 14 15 4 7 -10 10 -9
14 3 4 9 15 16 26 16 15 0 21 -9 25 -37z m-351 -15 c-16 -18 -18 -19 -21 -3
-4 19 16 37 31 28 4 -3 0 -14 -10 -25z m-369 14 c3 -5 -7 -21 -22 -37 -23 -25
-27 -27 -30 -11 -2 9 4 26 14 37 18 20 30 24 38 11z m331 -12 c11 -18 -5 -30
-25 -18 -10 7 -16 16 -14 20 7 11 32 10 39 -2z m-382 -68 c68 -47 76 -56 65
-71 -7 -9 -30 -38 -52 -66 -22 -27 -41 -52 -43 -54 -2 -4 -162 109 -168 119
-2 3 19 36 46 73 32 43 54 65 62 60 7 -3 47 -31 90 -61z m92 18 c-8 -13 -35 0
-35 16 0 12 4 12 20 4 11 -6 18 -15 15 -20z m-25 -15 c7 -9 10 -19 6 -22 -8
-9 -38 9 -44 25 -5 17 23 15 38 -3z m160 -45 c-27 -39 -48 -60 -60 -60 -28 0
-25 18 5 32 34 15 31 26 -7 30 -18 2 -32 8 -32 13 2 12 81 44 112 44 22 1 21
-2 -18 -59z m150 -1 c25 -17 36 -28 25 -24 -11 3 -41 11 -67 17 -60 14 -63 25
-8 37 3 0 25 -13 50 -30z m680 12 c0 -11 -77 -81 -89 -81 -23 0 -19 21 10 54
29 33 79 50 79 27z m-382 -26 c-4 -20 -2 -23 7 -15 17 14 27 -1 14 -20 -13
-22 -11 -34 5 -21 11 9 14 -1 14 -61 1 -40 9 -98 17 -128 29 -99 30 -154 5
-194 -25 -42 -95 -86 -134 -86 -104 0 -167 130 -97 201 38 37 82 39 116 4 28
-27 32 -57 10 -75 -19 -15 -37 -3 -30 20 9 27 -14 35 -37 13 -14 -15 -17 -27
-12 -47 12 -51 90 -57 121 -10 21 32 12 80 -32 184 -49 115 -47 177 8 238 26
28 30 28 25 -3z m-242 -46 c41 -23 82 -52 91 -65 14 -22 13 -29 -6 -91 -11
-38 -28 -79 -37 -92 -21 -29 -73 -52 -144 -61 l-55 -7 55 -2 c39 -1 67 5 94
20 45 24 53 20 34 -18 -13 -27 -15 -28 -106 -31 -81 -2 -98 0 -128 18 -19 12
-34 24 -34 27 0 3 19 3 43 -1 l42 -6 -32 15 c-48 21 -43 39 10 31 l42 -6 -43
20 c-31 14 -47 29 -58 56 -16 39 -9 84 16 92 8 3 10 0 6 -7 -22 -35 50 -131
98 -131 26 0 116 64 116 82 0 7 -12 0 -27 -14 -62 -59 -113 -61 -152 -7 -26
35 -28 44 -19 70 15 43 50 63 100 56 49 -7 90 -35 99 -68 4 -13 7 -17 8 -9 2
43 -12 59 -70 79 -63 21 -77 20 -123 -12 l-29 -21 7 30 c12 45 25 54 75 54 55
0 148 -50 168 -90 12 -23 13 -23 13 -4 0 11 -8 28 -17 36 -33 29 -123 68 -169
75 -53 7 -40 23 19 23 26 0 62 -13 113 -41z m154 17 c0 -16 -18 -31 -27 -22
-8 8 5 36 17 36 5 0 10 -6 10 -14z m480 -6 c0 -27 -43 -54 -71 -45 -23 7 -22
8 9 36 38 34 62 37 62 9z m-155 -19 c50 -22 59 -39 11 -21 -15 5 -45 10 -66
10 -32 0 -43 -5 -57 -27 -37 -56 -16 -148 64 -283 125 -213 354 -403 503 -418
84 -8 124 55 91 142 -16 40 -7 43 19 6 24 -34 37 -103 26 -145 -4 -16 -19 -32
-41 -42 -150 -71 -549 238 -687 532 -24 53 -33 86 -36 146 -4 74 -3 79 23 104
22 23 33 27 64 22 21 -2 60 -14 86 -26z m-1025 -53 c0 -5 -10 -8 -22 -6 -15 2
-24 11 -26 26 -4 23 -3 23 22 7 14 -10 26 -22 26 -27z m306 33 c-4 -5 -56 -37
-116 -71 -61 -33 -110 -63 -110 -66 0 -3 38 -3 85 1 47 4 85 3 85 -1 0 -5 -26
-27 -56 -49 l-56 -40 83 -5 84 -5 -53 -37 c-57 -41 -81 -46 -116 -23 -12 8
-41 16 -64 17 -53 2 -54 18 -2 55 22 15 40 31 40 36 0 4 -18 7 -40 7 -48 0
-57 14 -40 65 8 25 17 35 32 35 12 0 39 20 62 45 l42 45 73 0 c41 0 70 -4 67
-9z m882 -28 c-14 -17 -38 -16 -38 2 0 19 33 37 42 22 4 -6 2 -17 -4 -24z
m-484 -40 c6 -45 5 -71 -4 -93 -13 -31 -63 -66 -79 -56 -5 3 2 36 16 73 18 49
22 77 18 106 -7 36 -6 38 16 35 21 -3 25 -11 33 -65z m323 56 c22 -8 24 -12
13 -20 -12 -7 -11 -10 8 -15 27 -8 29 -24 3 -24 -45 0 -44 -56 1 -147 17 -35
35 -66 40 -69 5 -3 -7 26 -26 65 -42 82 -48 141 -16 141 16 0 19 -5 14 -29
-12 -59 81 -214 197 -329 84 -84 121 -102 144 -70 18 27 30 18 21 -17 -17 -68
-130 -4 -265 150 -24 28 -34 36 -23 19 70 -103 206 -214 263 -214 30 0 48 22
50 62 0 19 4 16 20 -17 34 -72 21 -104 -41 -106 l-35 -1 28 -10 c44 -16 77 3
77 44 0 18 -4 48 -9 65 -5 18 -6 35 -2 38 12 7 48 -36 66 -77 34 -83 8 -128
-75 -128 -76 0 -188 64 -311 177 -179 166 -308 434 -240 502 23 23 55 27 98
10z m-1340 -46 c2 -6 -11 -13 -29 -15 -18 -3 -41 -8 -50 -13 -23 -9 -23 12 -2
40 13 17 16 18 24 5 8 -13 10 -12 10 4 0 17 2 17 22 4 12 -8 23 -19 25 -25z
m633 27 c0 -16 -33 -80 -42 -80 -14 0 -9 44 8 68 16 23 34 29 34 12z m1190
-22 c0 -5 -4 -8 -10 -8 -5 0 -10 10 -10 23 0 18 2 19 10 7 5 -8 10 -18 10 -22z
m-1557 -18 c7 -25 -4 -25 -34 0 l-24 19 26 1 c18 0 28 -6 32 -20z m57 11 c0
-5 -7 -14 -16 -22 -13 -10 -17 -10 -24 1 -5 8 -6 18 -4 22 7 11 44 10 44 -1z
m-160 -24 c0 -48 -45 -62 -82 -25 -20 20 -20 22 -3 35 11 7 34 13 52 13 28 0
33 -4 33 -23z m73 -12 c44 -30 46 -41 12 -57 -38 -17 -75 3 -75 40 0 49 11 52
63 17z m-235 -7 c-20 -29 -38 -34 -38 -10 0 24 8 32 33 32 18 0 18 -2 5 -22z
m1844 -3 c6 -14 8 -28 5 -32 -9 -8 -47 27 -47 44 0 23 30 14 42 -12z m-1894
-13 c4 -26 -5 -27 -33 -6 -17 13 -18 16 -5 24 21 14 34 7 38 -18z m118 3 c16
-24 16 -27 -1 -45 -21 -23 -44 -25 -70 -6 -18 13 -18 14 6 44 30 38 44 39 65
7z m1594 -10 c29 -15 62 -50 81 -85 32 -62 3 -230 -40 -230 -25 0 -135 76
-176 121 -46 51 -77 120 -73 161 2 25 10 34 38 44 40 15 131 9 170 -11z
m-1757 -26 c12 -7 24 -13 26 -15 7 -6 -104 -174 -115 -174 -7 0 -22 8 -35 18
l-22 19 58 81 c32 45 60 82 62 82 3 0 14 -5 26 -11z m274 -11 c48 -45 18 -128
-46 -128 -35 0 -71 40 -71 77 0 30 42 73 71 73 13 0 33 -10 46 -22z m1257 -32
c22 -76 80 -144 179 -210 81 -54 111 -91 82 -102 -22 -9 -66 20 -127 83 -71
72 -107 121 -147 199 -35 68 -38 84 -17 84 9 0 21 -21 30 -54z m-1151 -13 c4
-37 2 -43 -13 -43 -24 0 -50 26 -50 50 0 21 40 54 51 42 3 -4 9 -26 12 -49z
m331 35 c18 -25 20 -38 7 -38 -15 0 -41 30 -41 46 0 21 17 17 34 -8z m-584
-28 c24 -24 25 -38 3 -62 -35 -39 -63 -11 -63 63 0 25 34 25 60 -1z m548 2 c2
-7 -3 -12 -12 -12 -9 0 -16 7 -16 16 0 17 22 14 28 -4z m-637 -142 c-11 -15
-27 -24 -40 -23 -14 2 -30 -11 -53 -44 -50 -73 -98 -123 -141 -144 -36 -19
-41 -19 -62 -5 -14 9 -29 25 -35 36 -10 19 -6 23 36 41 26 12 58 22 71 23 12
0 23 6 23 11 0 6 25 35 56 65 30 30 76 86 102 124 l47 68 7 -63 c7 -54 5 -68
-11 -89z m1965 113 c-8 -8 -56 17 -56 29 0 5 14 1 31 -7 17 -9 28 -19 25 -22z
m-1641 -37 c17 -13 17 -15 -10 -50 -26 -35 -29 -36 -46 -20 -23 21 -24 42 -2
66 19 22 33 23 58 4z m-190 -18 c28 -13 34 -48 11 -67 -11 -10 -22 -7 -50 11
-42 27 -43 32 -14 52 27 19 21 19 53 4z m1805 -20 c0 -12 -24 -10 -38 4 -20
20 -13 28 13 16 14 -6 25 -15 25 -20z m-1400 -39 c43 -31 67 -55 63 -62 -4 -7
-31 -43 -61 -80 l-54 -68 -26 17 c-15 9 -46 32 -69 51 l-43 34 58 79 c31 44
58 80 60 80 1 0 34 -23 72 -51z m151 35 c48 -25 83 -117 59 -154 -9 -13 -11
-13 -21 0 -8 11 -12 12 -16 3 -9 -23 -21 -14 -27 21 -4 19 -18 55 -31 81 -14
25 -25 50 -25 56 0 14 27 11 61 -7z m-461 -15 c9 -15 8 -24 -1 -35 -16 -20
-28 -17 -38 9 -7 16 -5 25 7 35 20 15 19 16 32 -9z m165 10 c10 -15 -1 -23
-20 -15 -9 3 -13 10 -10 16 8 13 22 13 30 -1z m233 -27 c2 -7 -7 -12 -23 -12
-24 0 -26 2 -15 15 14 17 31 16 38 -3z m-580 -25 c3 -12 -4 -17 -22 -17 -24 0
-25 2 -14 20 15 23 31 21 36 -3z m42 8 c7 -9 10 -18 7 -21 -10 -11 -37 5 -37
21 0 19 14 19 30 0z m310 8 c0 -5 -5 -15 -10 -23 -7 -11 -12 -12 -21 -3 -6 6
-8 16 -5 22 8 12 36 15 36 4z m540 -12 c0 -11 -12 -23 -30 -31 -37 -16 -47 -8
-32 25 14 31 62 36 62 6z m-590 -18 c0 -25 -1 -26 -16 -11 -9 9 -13 21 -10 27
13 20 26 11 26 -16z m310 -12 c7 -13 7 -22 0 -26 -15 -9 -30 4 -30 26 0 25 16
25 30 0z m591 -27 c-23 -20 -40 -38 -38 -40 1 -2 30 3 62 11 106 25 107 21 15
-65 -47 -44 -80 -80 -74 -80 7 0 51 18 100 39 48 22 92 37 96 35 21 -13 1 -51
-76 -141 -47 -54 -83 -99 -81 -101 2 -2 35 7 74 19 98 32 106 20 42 -61 -45
-56 -59 -80 -47 -80 2 0 23 7 46 15 24 8 52 13 62 9 37 -11 16 -33 -61 -63
-82 -31 -151 -48 -151 -37 0 3 20 38 45 78 25 40 45 76 45 80 0 4 -26 -5 -57
-19 -124 -55 -143 -62 -147 -55 -2 4 42 64 99 132 57 69 101 126 96 128 -4 1
-54 -15 -112 -37 -67 -25 -105 -35 -108 -28 -2 6 34 46 80 88 46 43 81 80 78
83 -3 3 -36 -3 -74 -14 -38 -11 -71 -18 -73 -15 -13 12 82 102 148 139 25 14
46 23 48 21 2 -2 -15 -20 -37 -41z m-1220 -21 c43 -31 79 -61 79 -66 0 -11
-89 -127 -98 -127 -12 0 -162 105 -162 113 0 10 90 137 97 137 2 0 40 -26 84
-57z m1943 26 c-7 -13 -31 -11 -40 2 -9 16 18 30 33 17 7 -6 10 -14 7 -19z
m-1914 1 c8 -15 8 -20 -3 -20 -14 0 -37 19 -37 32 0 16 30 7 40 -12z m50 6 c0
-21 -21 -31 -30 -15 -5 7 -6 17 -4 21 9 14 34 9 34 -6z m94 -14 c85 48 -88
-190 -202 -277 -25 -19 -63 -40 -86 -46 -24 -6 -54 -24 -73 -45 -30 -31 -37
-34 -92 -34 -33 0 -72 -5 -87 -10 -17 -7 -31 -7 -37 -1 -6 6 11 12 47 16 53 7
56 9 54 34 -3 23 5 30 69 61 40 19 83 45 96 57 21 20 26 22 55 11 45 -17 74 1
136 85 47 65 48 68 31 87 -17 19 -17 21 10 55 26 35 27 36 44 16 13 -15 21
-17 35 -9z m785 -21 l44 -39 -47 -49 c-25 -28 -46 -52 -46 -55 0 -2 28 1 63 8
34 8 77 14 95 14 l34 0 -53 -61 c-29 -34 -59 -63 -66 -66 -26 -10 -26 7 1 42
31 40 31 39 -31 23 -43 -10 -47 -10 -64 13 -28 36 -23 54 29 100 l47 42 -57
-6 c-56 -5 -58 -5 -58 18 0 23 33 55 55 55 5 -1 30 -18 54 -39z m-369 5 c0 -8
-4 -18 -10 -21 -5 -3 -10 3 -10 14 0 12 5 21 10 21 6 0 10 -6 10 -14z m-290
-28 c42 -31 37 -37 -17 -26 -58 12 -59 13 -43 33 17 20 25 19 60 -7z m335 1
c-4 -5 -13 -9 -22 -9 -13 0 -13 3 -3 15 13 15 35 11 25 -6z m-61 -28 c10 -10
13 -22 8 -25 -12 -7 -54 23 -47 35 9 14 20 11 39 -10z m476 0 c0 -12 -58 -61
-72 -61 -12 0 7 27 37 52 22 20 35 23 35 9z m925 -26 c-16 -13 -32 -22 -34
-19 -7 6 40 44 54 43 6 0 -3 -11 -20 -24z m-1600 -25 c40 -23 79 -47 85 -56
12 -14 10 -65 -5 -109 -3 -11 1 -7 10 9 11 19 16 45 13 77 -3 48 -2 49 24 49
34 0 43 -28 35 -102 -7 -54 -30 -97 -93 -166 -34 -37 -46 -44 -99 -52 -93 -15
-161 4 -235 67 -39 32 -74 105 -65 133 10 32 22 23 34 -23 6 -24 20 -56 32
-71 21 -27 88 -66 111 -66 7 1 -3 8 -22 16 -67 29 -110 86 -110 146 1 52 48
143 66 125 2 -2 -5 -29 -17 -60 -27 -71 -20 -116 22 -151 17 -14 36 -26 42
-26 7 0 -2 9 -19 19 -33 20 -60 71 -51 98 19 61 58 138 74 144 10 4 34 4 53 2
27 -4 31 -2 20 6 -8 6 -30 11 -47 11 -18 0 -33 5 -33 10 0 6 23 10 50 10 41 0
66 -8 125 -40z m155 21 c0 -13 -29 -35 -37 -28 -7 8 15 37 28 37 5 0 9 -4 9
-9z m181 -21 l7 -25 1 28 c1 41 19 33 41 -19 24 -55 25 -73 5 -80 -8 -4 -15
-12 -15 -20 0 -17 -22 -18 -39 -1 -11 10 -12 8 -3 -9 14 -27 -1 -53 -21 -36
-23 20 -66 107 -69 142 -4 42 16 49 37 13 12 -22 14 -23 10 -6 -4 13 -3 28 0
33 11 18 39 6 46 -20z m124 20 c6 -9 -21 -70 -30 -70 -7 0 -45 62 -45 73 0 11
68 9 75 -3z m1166 -21 c-25 -21 -41 -24 -41 -9 0 11 53 41 60 33 3 -2 -6 -13
-19 -24z m-1424 3 c13 -8 83 -166 83 -186 0 -9 -11 -11 -37 -7 -37 6 -38 8
-49 61 -27 138 -27 151 3 132z m1487 -19 c8 -20 -49 -74 -74 -70 -30 5 -23 43
12 66 40 25 54 26 62 4z m-2249 -20 c21 -25 22 -31 10 -53 -7 -14 -16 -33 -19
-42 -5 -18 -60 -45 -111 -55 -27 -6 -28 -5 -17 10 11 13 11 15 -5 11 -20 -5
-83 49 -83 71 0 10 164 82 193 84 4 1 19 -11 32 -26z m1658 -40 c4 -7 14 -13
21 -13 9 0 15 -24 20 -79 16 -200 101 -342 247 -415 133 -67 248 -56 338 32
62 60 80 111 57 165 -39 95 -193 82 -263 -22 -13 -19 -30 -59 -40 -90 -9 -31
-21 -62 -26 -68 -13 -18 -27 -6 -28 25 -2 25 -2 25 -6 4 -3 -15 -10 -22 -21
-20 -40 8 6 142 72 216 84 92 205 118 307 64 93 -48 125 -152 77 -251 -27 -56
-92 -123 -148 -151 -47 -24 -167 -42 -192 -28 -31 15 -20 28 25 29 86 2 85 14
-1 14 -86 0 -92 2 -185 48 -69 34 -107 60 -137 95 -63 70 -106 139 -134 214
-26 69 -52 237 -42 265 6 14 9 13 29 -3 12 -11 26 -25 30 -31z m-1598 -17
c-16 -25 -45 -36 -45 -17 0 4 10 20 21 35 28 36 48 20 24 -18z m2202 -24 c6
-27 -11 -46 -78 -86 l-32 -19 7 44 c8 51 37 87 72 87 18 0 26 -7 31 -26z
m-1201 -17 c58 -18 140 -76 156 -111 9 -20 9 -28 -4 -40 -13 -13 -18 -11 -43
22 -37 49 -106 91 -171 104 -52 11 -67 23 -41 33 22 10 53 7 103 -8z m324 0
c0 -3 -34 -51 -75 -105 -41 -54 -75 -103 -75 -109 0 -5 39 3 87 20 47 16 88
27 91 24 2 -2 -10 -29 -27 -59 -40 -71 -39 -78 4 -70 19 3 35 4 35 1 0 -8
-109 -42 -115 -35 -3 2 9 30 26 61 36 67 34 68 -72 32 -41 -14 -80 -24 -87
-23 -8 2 6 31 40 80 84 122 168 213 168 183z m379 -90 c12 -85 21 -95 14 -16
-4 42 -2 61 6 61 6 0 11 -5 11 -11 0 -5 4 -7 10 -4 5 3 12 -4 14 -17 3 -13 10
-48 16 -78 6 -30 27 -83 46 -118 58 -104 21 -94 -48 12 -39 61 -50 68 -23 16
9 -17 36 -52 60 -80 25 -28 45 -55 45 -60 0 -43 -108 67 -148 151 -33 70 -57
178 -47 216 10 41 34 3 44 -72z m-1907 -26 c-9 -9 -142 -22 -142 -14 0 9 41
88 54 104 8 11 19 4 53 -35 24 -26 39 -51 35 -55z m1441 78 c-20 -34 -48 -67
-56 -67 -12 0 -36 31 -37 47 0 12 80 43 93 36 4 -2 4 -10 0 -16z m-220 -35
c76 -41 126 -109 100 -135 -3 -4 -12 -2 -19 4 -9 8 -11 5 -7 -9 6 -24 -13 -62
-30 -62 -7 0 -23 21 -36 46 -28 52 -71 89 -116 99 -25 6 -22 3 15 -17 66 -36
103 -93 108 -169 5 -67 1 -74 -45 -84 l-33 -7 -1 44 c0 24 -5 59 -12 78 -13
37 -67 80 -101 80 -33 0 -68 -29 -64 -53 3 -25 39 -30 46 -7 5 13 3 13 -11 1
-15 -12 -17 -11 -17 8 0 26 25 38 45 21 32 -27 5 -90 -40 -90 -31 0 -50 19
-65 68 -21 66 12 113 93 132 31 8 31 8 5 9 -16 1 -28 5 -28 10 0 27 109 28
168 1 23 -11 40 -15 37 -10 -8 13 -112 50 -140 50 -26 0 -34 14 -12 24 25 11
113 -6 160 -32z m797 -7 c0 6 7 1 15 -9 10 -14 15 -15 15 -6 0 26 16 -4 34
-63 16 -54 16 -59 -1 -87 -9 -17 -22 -29 -28 -27 -20 7 -54 69 -61 113 -8 53
3 106 17 83 5 -7 9 -9 9 -4z m-1022 -7 c-7 -20 -238 -171 -291 -190 -44 -16
-47 -16 -47 0 0 26 12 38 51 51 20 6 60 29 89 51 29 22 61 42 72 45 22 8 24
25 3 25 -16 0 -20 12 -8 23 3 4 35 7 71 7 46 0 63 -3 60 -12z m-753 -23 c30
-29 31 -49 5 -75 -22 -22 -83 -27 -110 -10 -11 7 -4 10 27 10 46 0 73 26 51
48 -18 18 -38 14 -38 -5 0 -14 2 -15 9 -4 6 10 10 10 16 1 10 -16 -10 -34 -29
-27 -34 13 -8 87 30 87 8 0 26 -11 39 -25z m236 -91 c38 -19 59 -62 59 -119 0
-47 -12 -58 -29 -27 -10 16 -10 16 -11 0 0 -37 -18 -16 -31 34 -9 40 -24 65
-61 104 -27 28 -48 60 -48 72 0 20 3 19 46 -13 26 -20 59 -42 75 -51z m1662
34 c-13 -12 -26 -18 -30 -14 -4 4 1 14 11 22 31 22 43 17 19 -8z m-2062 -15
c57 -34 61 -103 7 -148 -42 -36 -86 -33 -124 6 -29 32 -29 32 -4 24 36 -12 89
-10 102 3 17 17 12 64 -8 79 -23 16 -35 16 -58 0 -17 -13 -17 -14 -1 -30 9
-10 22 -14 28 -10 8 5 8 8 -1 11 -21 7 -13 23 11 20 33 -5 30 -48 -5 -67 -25
-15 -29 -14 -52 8 -72 68 17 156 105 104z m843 -20 c-10 -46 -13 -53 -24 -53
-19 0 -22 30 -6 55 22 33 38 32 30 -2z m1791 -40 c4 -26 3 -43 -3 -43 -14 0
-22 25 -22 68 0 47 16 31 25 -25z m-2305 11 c0 -8 -10 -14 -25 -14 -28 0 -29
3 -14 31 8 16 13 18 25 8 8 -6 14 -18 14 -25z m2017 16 c17 -10 37 -29 43 -41
35 -64 -45 -169 -152 -200 -27 -7 -40 4 -15 14 6 3 1 6 -13 7 -21 1 -16 6 25
25 107 49 146 129 83 168 -47 30 -148 -56 -168 -144 -18 -84 -19 -86 -30 -69
-27 43 -3 125 57 190 61 69 114 85 170 50z m-2136 -32 c16 -12 35 -36 44 -54
17 -36 20 -84 5 -84 -5 0 -10 6 -10 13 0 8 -3 7 -10 -3 -7 -11 -13 -6 -25 25
-24 57 -53 84 -97 92 -47 7 -57 20 -26 33 31 13 85 3 119 -22z m2388 -12 c20
-83 9 -139 -16 -83 -9 18 -10 15 -6 -19 10 -77 -15 -59 -42 31 -27 88 -27 108
-1 86 12 -10 16 -8 21 8 11 35 32 23 44 -23z m-2929 15 c0 -13 -27 -21 -45
-15 -8 4 -12 10 -9 15 7 12 54 12 54 0z m2038 -13 c16 -16 15 -43 -3 -58 -12
-10 -21 -8 -46 8 l-31 20 21 21 c24 24 41 27 59 9z m-1398 -7 c0 -13 -26 -32
-33 -24 -8 7 11 33 24 33 5 0 9 -4 9 -9z m1036 -57 c-4 -37 -11 -75 -17 -85
-14 -26 -39 -24 -40 4 l0 22 -10 -23 c-14 -36 -29 -16 -31 41 -1 47 -2 48 -5
12 -4 -37 -23 -76 -23 -46 0 7 -6 11 -15 8 -10 -5 -16 4 -21 29 -8 44 13 69
69 78 l37 7 2 -43 1 -43 4 40 c5 57 10 65 34 65 21 0 21 -3 15 -66z m968 50
c19 -18 21 -45 4 -62 -19 -19 -28 -14 -28 13 0 35 -24 32 -59 -7 -33 -37 -52
-32 -30 9 14 26 64 63 86 63 6 0 19 -7 27 -16z m-1946 -17 c3 -14 -4 -17 -34
-17 -37 0 -37 0 -19 20 22 24 48 22 53 -3z m-197 -16 c38 -39 40 -91 5 -119
-38 -29 -141 -55 -166 -42 -24 13 -37 57 -23 79 15 24 27 19 33 -14 4 -25 10
-30 38 -33 72 -7 101 76 42 119 -34 26 -31 39 11 39 20 0 40 -10 60 -29z m569
-66 c-52 -52 -91 -97 -88 -100 5 -5 88 6 156 20 13 3 22 1 22 -7 0 -16 -101
-118 -117 -118 -15 0 -17 16 -3 25 5 3 15 15 21 27 10 19 9 20 -30 13 -31 -5
-48 -3 -66 9 -37 24 -32 57 15 100 l40 36 -46 0 c-45 0 -45 0 -42 33 3 32 4
32 73 43 39 7 90 12 115 13 l45 1 -95 -95z m260 45 c-6 -12 -27 -28 -46 -36
-32 -13 -39 -13 -79 5 -26 11 -45 27 -45 35 0 20 20 20 46 1 34 -26 81 -19
106 16 17 22 24 26 26 15 2 -8 -2 -25 -8 -36z m604 31 c9 -14 -29 -42 -48 -35
-16 6 -21 25 -9 37 9 10 51 9 57 -2z m58 -27 l31 -16 -27 -26 c-21 -21 -30
-25 -43 -16 -29 18 -38 41 -24 58 17 20 24 20 63 0z m-1327 -15 c-8 -12 -45
-12 -45 0 0 10 30 20 43 14 4 -3 5 -9 2 -14z m1421 4 c20 -27 17 -34 -11 -21
-26 11 -30 19 -18 31 10 10 15 9 29 -10z m-1648 -9 c23 -40 -16 -92 -59 -79
-26 9 -22 48 6 54 17 3 18 1 6 -13 -8 -10 -9 -16 -3 -16 23 0 25 24 4 38 -12
8 -22 18 -22 23 0 16 59 10 68 -7z m1442 6 c12 -7 11 -12 -5 -30 -10 -11 -25
-18 -32 -16 -7 3 -13 -1 -13 -9 0 -13 -28 -35 -44 -35 -3 0 -6 11 -6 24 0 26
23 51 38 42 6 -3 12 3 15 14 6 21 23 25 47 10z m-1188 -22 c-6 -6 -15 -8 -19
-4 -4 4 -1 11 7 16 19 12 27 3 12 -12z m500 -9 c39 -20 61 -21 113 -4 18 6 17
4 -4 -14 -31 -28 -93 -28 -137 0 -33 20 -44 39 -24 39 6 0 29 -9 52 -21z m907
-23 c7 -9 10 -23 7 -32 -5 -14 -4 -15 9 -4 13 11 20 11 41 -1 35 -18 47 -44
33 -70 -8 -16 -17 -20 -39 -15 -18 3 -30 1 -33 -7 -3 -8 -12 -5 -28 10 -18 17
-20 25 -11 36 10 12 8 14 -10 10 -15 -3 -35 6 -57 24 l-33 29 27 32 c25 30 28
31 54 18 15 -8 33 -22 40 -30z m-365 -23 c-14 -32 -28 -63 -31 -70 -8 -19 -31
-23 -43 -8 -9 11 -8 25 6 61 21 56 38 74 70 74 l24 0 -26 -57z m200 31 c22
-21 21 -25 -19 -64 -30 -29 -37 -32 -46 -20 -20 32 -21 61 -4 80 22 24 48 26
69 4z m-778 -20 c57 -33 130 -30 169 6 30 28 44 20 22 -13 -31 -47 -140 -77
-153 -42 -4 10 -20 15 -48 15 -54 0 -86 21 -67 44 18 21 25 20 77 -10z m-322
-57 c19 -46 20 -50 3 -62 -9 -7 -17 -17 -17 -23 0 -23 -24 -24 -41 -1 l-19 24
12 -32 c13 -34 7 -49 -14 -40 -19 7 -65 95 -73 140 -6 30 -4 37 8 37 9 0 21
-8 26 -17 9 -16 10 -15 11 5 0 21 4 23 42 20 40 -3 43 -5 62 -51z m69 47 c10
-10 -14 -64 -29 -64 -11 0 -44 47 -44 65 0 7 65 7 73 -1z m-223 -81 c18 -43
39 -92 46 -109 l13 -31 -82 -60 c-45 -33 -89 -62 -98 -66 -24 -8 -53 27 -87
103 -42 94 -57 160 -39 177 12 13 164 60 198 62 11 1 27 -24 49 -76z m1165 47
c21 -40 19 -45 -16 -71 -26 -18 -33 -19 -40 -8 -17 27 -10 77 13 93 28 20 25
21 43 -14z m165 -15 l34 -35 -25 -27 -24 -28 28 24 27 25 30 -29 c38 -37 38
-49 -5 -75 -65 -40 -142 -8 -100 42 l20 23 -21 -17 c-11 -10 -25 -18 -30 -18
-9 0 -54 64 -54 77 0 12 63 73 75 73 6 0 26 -16 45 -35z m-1752 -21 c40 -16
41 -28 3 -44 -24 -10 -40 -8 -96 9 -37 12 -80 21 -96 21 -43 0 -35 17 14 29
49 11 128 5 175 -15z m1506 0 c13 -33 6 -73 -14 -84 -11 -6 -25 -8 -30 -5 -15
9 -12 58 6 83 18 26 30 28 38 6z m-450 -10 c8 -20 7 -21 -19 -26 -14 -2 -21 3
-23 20 -3 16 2 22 16 22 11 0 23 -7 26 -16z m-882 -91 c16 -48 43 -109 59
-136 31 -50 36 -67 18 -67 -6 0 -34 49 -62 110 -28 60 -52 108 -54 107 -1 -2
18 -54 42 -117 25 -62 45 -115 45 -117 0 -1 -8 -3 -19 -3 -10 0 -24 -6 -30
-14 -7 -8 -32 -21 -56 -29 -49 -17 -57 -13 -89 50 -23 45 -76 191 -76 208 0
23 86 68 115 61 19 -5 23 -3 19 9 -10 26 15 16 31 -12 l15 -28 -1 25 c-4 75 5
65 43 -47z m806 77 c1 -10 -11 -19 -35 -27 -21 -6 -46 -15 -55 -18 -24 -9 -23
6 3 38 15 20 28 26 52 24 19 -1 33 -9 35 -17z m1005 -35 c-7 -19 -24 -19 -48
-1 -19 14 -19 14 0 36 l20 22 17 -22 c9 -11 14 -28 11 -35z m-2067 10 c39 -16
37 -35 -3 -35 -35 0 -143 40 -143 53 0 13 101 1 146 -18z m1726 -19 c20 -33
23 -47 15 -55 -9 -9 -8 -11 3 -6 10 3 27 -6 44 -24 33 -35 30 -44 -32 -79
l-39 -21 -23 31 c-18 24 -21 35 -12 48 9 15 8 17 -7 13 -13 -3 -21 3 -29 24
-5 15 -13 36 -17 45 -7 18 36 68 59 68 6 0 23 -20 38 -44z m417 -27 c10 -51
15 -59 29 -54 46 19 56 19 48 -1 -19 -46 -18 -51 15 -63 32 -11 32 -11 14 -32
-18 -19 -18 -21 -1 -54 19 -35 15 -55 -10 -55 -11 0 -13 -6 -9 -21 6 -19 3
-20 -32 -17 l-38 3 -3 -47 c-2 -27 -7 -48 -12 -48 -5 0 -22 11 -38 25 -17 14
-33 25 -37 25 -5 0 -23 -17 -41 -37 l-33 -38 -1 56 c0 31 -3 59 -6 62 -4 4
-19 -2 -34 -13 -16 -11 -31 -20 -35 -20 -7 0 1 58 12 86 3 9 -2 14 -16 14 -27
0 -26 6 4 42 14 16 25 33 25 36 0 4 -23 22 -50 40 -28 17 -50 37 -50 42 0 6
23 7 60 3 l60 -6 0 57 c0 31 3 56 6 56 3 0 24 -14 45 -31 21 -17 43 -28 48
-24 6 3 20 23 32 45 12 22 25 37 29 35 4 -3 13 -32 19 -66z m431 56 c0 -9 -75
-55 -90 -55 -8 0 5 14 30 30 43 28 60 36 60 25z m-391 -22 c6 -10 11 -12 11
-5 0 19 38 14 49 -7 12 -21 1 -34 -37 -46 -19 -5 -25 -1 -37 29 -8 19 -15 38
-15 41 0 12 20 4 29 -12z m441 -8 c0 -19 -70 -86 -87 -83 -30 6 -24 25 18 52
22 15 38 30 36 33 -3 3 -21 -6 -39 -20 -41 -30 -58 -40 -58 -33 0 3 18 19 40
35 38 28 90 37 90 16z m-1000 -57 c20 -43 20 -43 -1 -60 -21 -18 -21 -18 9
-12 27 6 31 2 52 -41 12 -25 21 -47 19 -49 -8 -6 -48 -26 -53 -26 -17 0 -2 20
22 29 24 9 22 9 -14 4 -36 -4 -44 -2 -63 22 -16 21 -18 31 -10 41 9 11 8 14
-4 14 -15 0 -37 47 -37 80 0 15 30 37 53 39 4 1 17 -18 27 -41z m-657 2 c28
-32 45 -106 29 -122 -7 -7 -24 9 -52 46 -38 50 -42 59 -32 81 15 32 25 31 55
-5z m1707 -4 l23 -25 -31 -42 c-17 -23 -40 -48 -52 -56 -18 -13 -24 -13 -45 1
-21 14 -42 52 -33 61 21 20 104 85 109 85 3 0 16 -11 29 -24z m-359 -68 c12
-22 1 -23 -46 -4 -33 14 -34 16 -23 47 l11 32 24 -29 c13 -16 28 -37 34 -46z
m68 15 c49 -55 63 -83 41 -83 -14 0 -104 90 -119 118 -10 19 -9 22 8 22 11 0
41 -24 70 -57z m461 -87 c0 -13 -118 103 -132 129 -6 11 22 -11 61 -50 39 -38
71 -74 71 -79z m-10 83 c0 -12 -27 -11 -35 1 -11 17 5 32 21 19 8 -6 14 -15
14 -20z m-2841 -55 c12 -30 30 -73 41 -94 22 -44 25 -60 10 -60 -13 0 -80 144
-87 189 -9 51 12 31 36 -35z m2737 44 c4 -7 0 -16 -11 -22 -162 -94 -290 -211
-378 -345 -44 -66 -50 -72 -65 -58 -14 14 -12 21 19 72 85 141 212 263 288
276 36 7 54 17 81 48 36 42 54 49 66 29z m-901 -18 c-8 -13 -86 -53 -91 -47
-5 5 76 56 89 57 5 0 5 -5 2 -10z m-1130 -23 c60 -34 98 -102 99 -180 l1 -62
-40 0 -40 0 -5 55 c-8 88 -46 130 -120 130 -33 0 -60 -31 -53 -61 3 -10 14
-19 24 -19 19 0 35 17 24 28 -3 3 -10 0 -14 -7 -11 -17 -23 2 -15 23 15 40 71
4 60 -39 -14 -57 -91 -52 -123 8 -12 25 -13 37 -4 69 23 75 123 102 206 55z
m1677 -22 c23 -22 35 -40 32 -50 -7 -18 -16 -19 -34 -2 -12 10 -12 9 -1 -6 23
-29 5 -30 -43 -2 -59 35 -63 42 -35 71 29 31 37 30 81 -11z m-2463 -29 c37
-85 46 -115 35 -126 -14 -14 -44 -2 -44 16 0 8 -6 14 -14 14 -13 0 -29 34 -27
57 1 6 -3 14 -9 18 -8 5 -7 11 1 21 9 11 9 14 -1 14 -10 0 -10 3 0 15 21 25
38 17 59 -29z m2850 35 c23 -6 18 -11 -50 -53 -141 -88 -265 -221 -331 -355
-17 -35 -34 -63 -39 -63 -13 0 -29 36 -29 68 0 73 213 314 335 379 62 33 73
36 114 24z m-911 -23 c-5 -13 -117 -97 -130 -98 -5 0 -8 8 -8 18 0 10 24 32
58 54 60 38 86 47 80 26z m946 -23 c-18 -14 -18 -14 4 -8 39 10 24 -11 -35
-47 -72 -45 -187 -158 -237 -233 -38 -58 -63 -70 -58 -27 2 23 2 23 -18 5 -16
-15 -20 -15 -20 -3 0 69 282 328 358 328 25 0 25 -1 6 -15z m-2414 -53 c0 -49
41 -114 90 -139 53 -28 94 -29 143 -3 42 22 48 14 15 -18 -46 -42 -120 -54
-181 -28 -45 18 -95 73 -109 117 -12 42 -3 103 13 78 7 -12 9 -11 9 4 0 9 5
17 10 17 6 0 10 -13 10 -28z m102 -96 c14 -9 44 -17 69 -19 51 -2 55 -21 5
-25 -67 -6 -156 65 -156 125 0 39 15 33 36 -16 12 -27 33 -56 46 -65z m-235
52 c-9 -35 -74 -106 -118 -128 -21 -11 -40 -20 -43 -20 -3 0 17 29 44 66 28
36 50 69 50 73 0 10 62 42 68 36 3 -2 2 -15 -1 -27z m2058 22 c3 -5 1 -10 -6
-10 -8 0 -10 -13 -6 -45 l7 -45 -36 15 c-63 26 -63 26 -57 -87 l5 -103 -62 63
c-34 34 -65 62 -70 62 -4 0 -34 -31 -65 -70 -31 -38 -61 -70 -66 -70 -5 0 -9
43 -9 95 0 104 -3 109 -55 75 -16 -11 -33 -20 -37 -20 -11 0 -10 24 2 55 8 22
13 25 24 15 11 -9 21 -8 45 4 47 25 51 21 51 -51 l1 -68 44 49 44 49 49 -32
c27 -17 52 -31 55 -31 4 0 7 25 7 55 l0 55 45 0 c43 0 45 1 39 25 -5 22 -3 25
19 25 14 0 29 -4 32 -10z m-1984 -52 c28 -87 144 -159 232 -145 18 3 41 7 52
9 14 2 20 -3 20 -17 0 -16 -9 -21 -48 -26 -27 -3 -51 -1 -54 4 -3 5 -8 5 -12
-1 -3 -5 -20 -16 -36 -25 -30 -15 -34 -14 -93 14 -68 33 -93 59 -118 124 -16
43 -16 45 6 80 12 19 25 33 29 31 4 -3 14 -24 22 -48z m-176 -15 c-39 -73 -72
-86 -35 -14 11 23 27 41 35 41 14 0 14 -3 0 -27z m-475 -63 c30 -7 39 -39 16
-56 -13 -9 -30 -8 -81 5 -79 21 -99 36 -64 50 13 5 37 19 53 30 l30 20 10 -22
c6 -11 22 -24 36 -27z m2244 -22 c3 -13 7 -55 9 -94 2 -39 7 -77 12 -83 4 -8
25 7 60 46 42 45 54 53 55 38 0 -33 -37 -84 -75 -102 -43 -20 -44 -28 -5 -48
33 -17 50 -43 50 -76 0 -22 1 -22 33 8 31 29 33 30 65 17 21 -9 32 -21 32 -34
0 -24 -17 -26 -42 -3 -10 9 -20 14 -22 12 -2 -2 -15 -23 -30 -47 -21 -33 -32
-43 -49 -40 -19 3 -23 11 -27 58 -5 50 -7 56 -35 65 -55 18 -55 18 -55 146 0
65 -3 119 -7 119 -4 0 -25 -21 -48 -47 -30 -34 -44 -43 -49 -34 -6 9 11 31 50
67 32 30 61 54 66 54 4 0 10 -10 12 -22z m-1731 -59 c122 -81 311 -346 324
-457 5 -42 2 -53 -16 -71 -11 -11 -30 -21 -41 -21 -47 0 -143 59 -175 107 -13
20 -12 27 11 71 25 49 25 51 9 83 -10 19 -33 55 -52 82 -38 52 -59 58 -112 31
-28 -14 -35 -14 -46 -3 -21 23 -73 151 -68 167 7 18 59 41 94 42 14 0 46 -14
72 -31z m-659 -15 c59 -27 71 -43 34 -45 -19 0 -17 -3 9 -12 51 -19 39 -32
-27 -31 -33 0 -60 0 -60 -2 0 -1 26 -8 58 -14 68 -15 79 -20 61 -31 -34 -22
-144 2 -202 43 -41 29 -20 48 28 25 49 -24 58 -21 12 4 -47 25 -39 43 17 36
41 -5 41 -5 14 9 -28 15 -34 25 -21 37 10 11 16 9 77 -19z m276 -26 l9 -23 0
23 c2 44 18 21 25 -35 9 -80 34 -176 66 -255 29 -70 29 -78 -2 -78 -38 0 -97
146 -117 289 -12 89 -2 131 19 79z m2363 -3 c47 -33 47 -45 -3 -45 -42 0 -61
18 -53 51 7 24 11 24 56 -6z m-2485 -7 c6 -13 18 -63 27 -113 9 -49 30 -124
46 -165 34 -89 35 -90 9 -90 -40 0 -98 164 -107 303 -6 88 2 110 25 65z m62
-4 c0 50 11 22 36 -96 13 -62 35 -144 50 -181 14 -37 25 -70 23 -72 -2 -2 -13
-5 -24 -7 -43 -7 -116 198 -114 323 1 62 1 63 14 34 l14 -30 1 29z m623 11
c62 -13 139 -116 123 -166 -2 -8 -7 -27 -11 -42 -3 -16 -10 -27 -15 -25 -5 2
-50 55 -99 118 -74 94 -87 116 -73 121 17 6 22 5 75 -6z m497 5 c0 -5 -10 -15
-22 -21 -23 -12 -23 -12 -4 10 21 23 26 26 26 11z m1282 -70 l30 0 -18 -27
c-10 -16 -17 -41 -16 -56 2 -27 1 -28 -33 -21 -19 3 -41 2 -48 -4 -8 -7 -21 0
-43 24 l-30 33 28 21 c15 11 35 35 44 52 l16 32 20 -27 c14 -19 29 -27 50 -27z
m191 -73 c70 -140 85 -217 47 -237 -29 -15 -51 4 -79 70 -42 98 -69 297 -38
288 6 -2 38 -56 70 -121z m-2413 98 c0 -8 -7 -15 -15 -15 -16 0 -20 12 -8 23
11 12 23 8 23 -8z m2486 -22 c-4 -21 -9 -51 -12 -67 -4 -19 -3 -26 5 -22 7 5
11 -6 11 -34 0 -25 -4 -39 -10 -35 -5 3 -10 17 -10 30 0 12 -7 25 -15 29 -21
8 -19 50 5 96 26 50 34 51 26 3z m76 10 c71 -77 192 -296 204 -372 8 -49 -15
-91 -48 -91 -76 0 -165 142 -202 323 -32 153 -15 204 46 140z m159 -76 c21
-45 39 -94 39 -111 l0 -30 -36 35 c-20 18 -43 48 -50 64 -8 17 -21 40 -30 52
-15 21 -15 23 1 29 10 4 21 1 27 -7 7 -10 8 -9 3 6 -31 88 -4 66 46 -38z
m-2711 23 c0 -11 -6 -20 -14 -20 -21 0 -31 21 -15 31 22 14 29 11 29 -11z
m743 -45 c20 -14 37 -30 37 -35 0 -12 -2 -12 -73 5 -55 13 -60 12 -78 -6 -32
-32 0 -67 79 -84 40 -8 33 -25 -11 -25 -42 0 -92 31 -112 69 -20 40 -19 48 10
76 34 35 97 34 148 0z m-723 -21 c0 -8 -9 -14 -20 -14 -18 0 -19 3 -10 20 12
22 30 18 30 -6z m198 14 c-3 -7 -11 -13 -18 -13 -7 0 -15 6 -17 13 -3 7 4 12
17 12 13 0 20 -5 18 -12z m2723 -201 c52 -68 69 -97 69 -121 0 -63 -48 -75
-104 -26 -26 23 -49 66 -95 174 -34 79 -61 154 -61 167 1 21 9 16 62 -41 33
-36 92 -105 129 -153z m-2781 172 c0 -13 -159 -91 -171 -83 -25 15 1 40 71 70
71 29 100 33 100 13z m85 -9 c0 -8 -10 -16 -22 -18 -22 -3 -32 16 -16 32 12
11 38 2 38 -14z m-57 -30 c1 -9 -29 -35 -80 -67 -75 -47 -84 -51 -95 -36 -7 9
-13 22 -13 27 0 14 150 96 170 93 8 -1 16 -9 18 -17z m81 -4 c9 -10 8 -16 -4
-26 -19 -16 -41 1 -32 24 8 20 21 20 36 2z m-652 -28 c36 -35 41 -48 18 -48
-11 0 -15 -11 -15 -41 0 -38 -2 -41 -22 -36 -13 3 -38 8 -55 12 l-33 8 0 -42
c0 -49 -15 -55 -24 -8 -13 74 -18 137 -11 137 4 0 30 -18 58 -40 27 -22 52
-38 54 -36 3 3 0 28 -6 56 -18 83 -15 87 36 38z m602 -12 c10 -11 5 -19 -21
-38 -129 -95 -141 -101 -151 -74 -8 21 12 43 78 86 67 43 77 46 94 26z m38
-43 c5 -13 -132 -133 -151 -133 -26 0 -25 28 2 52 49 45 125 99 136 95 5 -2
11 -8 13 -14z m83 -8 c0 -7 -6 -18 -14 -24 -20 -17 -44 13 -26 33 13 17 40 10
40 -9z m-48 -40 c10 -22 6 -29 -42 -82 -70 -77 -76 -80 -106 -52 l-25 24 73
67 c40 37 76 67 81 68 4 0 12 -11 19 -25z m-312 -37 c0 -7 -4 -19 -9 -27 -8
-13 -15 -12 -50 4 -22 10 -38 22 -35 26 9 14 94 11 94 -3z m665 -9 c12 -19 -5
-23 -22 -6 -16 16 -16 17 -1 17 9 0 20 -5 23 -11z m-720 -31 c27 -12 33 -35
11 -44 -16 -6 -76 22 -76 35 0 23 26 27 65 9z m-41 -43 c38 -16 44 -37 12 -43
-20 -4 -68 36 -60 49 7 11 5 12 48 -6z"/>
<path d="M3987 4753 c-9 -15 30 -122 63 -173 34 -54 62 -75 86 -66 28 11 13
50 -51 136 -70 94 -90 116 -98 103z m66 -75 c19 -25 17 -68 -3 -68 -6 0 -40
81 -40 98 0 11 26 -7 43 -30z m67 -89 c14 -25 12 -59 -2 -59 -31 0 -63 62 -42
83 9 9 34 -4 44 -24z"/>
<path d="M3561 4524 c0 -11 3 -14 6 -6 3 7 2 16 -1 19 -3 4 -6 -2 -5 -13z"/>
<path d="M765 4554 c-19 -19 -19 -19 1 -39 19 -18 44 -4 44 25 0 24 -26 32
-45 14z"/>
<path d="M4380 4436 c0 -2 7 -7 16 -10 8 -3 12 -2 9 4 -6 10 -25 14 -25 6z"/>
<path d="M3939 4181 c-16 -16 -29 -35 -29 -43 0 -7 5 -4 11 7 6 11 23 30 38
42 14 13 22 23 18 23 -5 0 -22 -13 -38 -29z"/>
<path d="M3905 4081 c2 -32 11 -51 31 -70 l28 -26 -22 26 c-12 14 -27 46 -32
70 l-9 44 4 -44z"/>
<path d="M4048 3983 c7 -3 16 -2 19 1 4 3 -2 6 -13 5 -11 0 -14 -3 -6 -6z"/>
<path d="M964 3835 c8 -16 34 -48 57 -70 l43 -40 -39 45 c-22 25 -48 56 -58
70 l-17 25 14 -30z"/>
<path d="M1070 3726 c0 -2 8 -10 18 -17 15 -13 16 -12 3 4 -13 16 -21 21 -21
13z"/>
<path d="M1140 3676 c0 -3 9 -10 20 -16 11 -6 20 -8 20 -6 0 3 -9 10 -20 16
-11 6 -20 8 -20 6z"/>
<path d="M3507 4156 c-8 -20 40 -63 55 -48 8 8 7 17 -6 36 -18 28 -41 34 -49
12z m43 -23 c0 -13 -3 -13 -15 -3 -8 7 -15 16 -15 21 0 5 7 6 15 3 8 -4 15
-13 15 -21z"/>
<path d="M3470 4091 c0 -25 27 -48 41 -34 8 8 7 17 0 32 -14 26 -41 28 -41 2z"/>
<path d="M1280 3980 c0 -5 4 -10 9 -10 6 0 13 5 16 10 3 6 -1 10 -9 10 -9 0
-16 -4 -16 -10z"/>
<path d="M1230 3944 c0 -9 5 -14 12 -12 18 6 21 28 4 28 -9 0 -16 -7 -16 -16z"/>
<path d="M1219 3861 c22 -26 48 -54 58 -62 10 -8 -7 14 -36 49 -30 34 -56 62
-58 62 -3 0 13 -22 36 -49z"/>
<path d="M3450 3776 c14 -8 33 -15 43 -16 14 0 17 -5 12 -20 -3 -10 -1 -28 5
-40 9 -16 8 -20 -6 -20 -10 0 -25 -7 -34 -15 -16 -15 -19 -13 -39 21 -16 26
-19 40 -12 47 23 23 10 29 -14 7 l-25 -24 25 -26 c14 -14 25 -34 25 -43 0 -21
10 -22 36 -2 10 8 32 15 48 15 23 0 27 3 21 18 -4 9 -10 36 -12 59 -5 38 -8
42 -32 41 -14 -1 -35 2 -46 6 -13 5 -11 2 5 -8z"/>
<path d="M1483 3684 c-24 -20 -43 -41 -43 -47 0 -18 44 -76 61 -80 21 -6 70
15 88 37 21 25 16 75 -10 102 -30 32 -46 30 -96 -12z m85 4 c22 -22 13 -55
-22 -82 -39 -29 -57 -27 -77 11 -13 23 -11 27 19 54 34 31 61 36 80 17z m-2
-104 c-30 -21 -44 -16 -17 7 13 11 27 17 30 13 3 -3 -3 -12 -13 -20z"/>
<path d="M2030 3576 c0 -2 8 -10 18 -17 15 -13 16 -12 3 4 -13 16 -21 21 -21
13z"/>
<path d="M2062 3508 c-2 -26 -9 -42 -24 -52 -12 -9 -18 -16 -12 -16 24 0 45
38 41 72 l-4 33 -1 -37z"/>
<path d="M3030 3536 c0 -3 9 -10 20 -16 11 -6 20 -8 20 -6 0 3 -9 10 -20 16
-11 6 -20 8 -20 6z"/>
<path d="M1360 3501 c0 -27 13 -33 35 -17 21 15 12 36 -16 36 -12 0 -19 -7
-19 -19z"/>
<path d="M1510 3444 c-11 -12 -10 -18 3 -32 16 -15 18 -15 34 0 13 14 14 20 3
32 -7 9 -16 16 -20 16 -4 0 -13 -7 -20 -16z m35 -13 c7 -12 -12 -24 -25 -16
-11 7 -4 25 10 25 5 0 11 -4 15 -9z"/>
<path d="M1602 3398 c-7 -7 -12 -18 -12 -25 0 -16 38 -36 56 -29 27 10 10 66
-21 66 -6 0 -16 -5 -23 -12z"/>
<path d="M1512 3363 c-22 -9 -35 -43 -21 -59 17 -20 56 -17 69 5 13 25 13 27
-6 45 -16 17 -21 18 -42 9z m27 -22 c14 -9 9 -41 -6 -41 -19 1 -35 19 -30 34
7 18 16 20 36 7z"/>
<path d="M3115 3140 c-4 -7 3 -8 22 -4 38 9 42 14 10 14 -14 0 -29 -5 -32 -10z"/>
<path d="M3123 3094 c-14 -14 -22 -28 -18 -32 4 -4 10 -1 12 6 3 8 19 22 37
33 22 13 26 19 13 19 -10 0 -29 -12 -44 -26z"/>
<path d="M3225 2974 c-11 -9 -30 -13 -42 -11 -12 2 -20 0 -17 -4 8 -14 48 -11
70 5 10 8 17 17 14 19 -3 3 -14 -1 -25 -9z"/>
<path d="M3225 2925 l-30 -14 26 -1 c15 0 32 7 39 15 15 18 5 18 -35 0z"/>
<path d="M3300 3205 c-14 -17 -5 -51 16 -59 9 -3 25 0 37 7 21 12 21 12 -10
15 -22 2 -33 9 -33 19 0 12 7 14 30 10 23 -5 28 -3 23 8 -7 19 -47 19 -63 0z"/>
<path d="M3388 3119 c-44 -25 -3 -93 42 -69 26 14 26 56 1 70 -23 12 -22 12
-43 -1z m37 -39 c0 -22 -29 -18 -33 3 -3 14 1 18 15 15 10 -2 18 -10 18 -18z"/>
<path d="M2590 3180 c0 -5 5 -10 10 -10 6 0 10 5 10 10 0 6 -4 10 -10 10 -5 0
-10 -4 -10 -10z"/>
<path d="M2661 2956 c-9 -10 -9 -16 -1 -21 17 -10 37 12 24 25 -8 8 -15 6 -23
-4z"/>
<path d="M2605 2880 c-8 -12 20 -24 35 -15 5 3 10 10 10 16 0 12 -37 12 -45
-1z"/>
<path d="M2605 2781 c-3 -5 -1 -12 5 -16 12 -7 30 2 30 16 0 12 -27 12 -35 0z"/>
<path d="M2660 2710 c0 -13 5 -20 13 -17 6 2 12 10 12 17 0 7 -6 15 -12 18 -8
2 -13 -5 -13 -18z"/>
<path d="M2735 2671 c-3 -5 -1 -12 5 -16 12 -7 30 2 30 16 0 12 -27 12 -35 0z"/>
<path d="M2817 2673 c-8 -7 11 -33 24 -33 5 0 9 9 9 20 0 19 -20 27 -33 13z"/>
<path d="M2720 2881 c-24 -46 6 -131 47 -131 15 0 15 2 1 18 -24 26 -30 58
-19 97 7 28 7 35 -4 35 -8 0 -19 -9 -25 -19z"/>
<path d="M3267 2718 c-29 -80 -37 -123 -35 -203 l1 -80 8 100 c4 57 16 125 28
159 12 33 19 61 17 63 -2 2 -10 -16 -19 -39z"/>
<path d="M3241 2394 c0 -11 3 -14 6 -6 3 7 2 16 -1 19 -3 4 -6 -2 -5 -13z"/>
<path d="M2545 2523 l-45 -58 25 -20 c13 -11 38 -28 54 -38 l30 -18 40 54 c23
30 41 59 41 65 0 11 -78 72 -92 72 -4 0 -28 -26 -53 -57z m81 22 c7 -18 -13
-45 -33 -45 -19 0 -28 27 -13 45 16 19 39 19 46 0z m44 -30 c10 -12 10 -18 0
-30 -26 -32 -60 -10 -38 25 15 24 22 25 38 5z m-80 -33 c0 -5 -6 -17 -14 -27
-12 -16 -16 -17 -30 -6 -19 16 -20 33 -4 49 11 11 48 -1 48 -16z m39 -25 c8
-11 6 -18 -8 -31 -31 -28 -58 3 -29 32 15 15 23 15 37 -1z"/>
<path d="M1961 2461 c-17 -21 -31 -43 -31 -48 0 -9 91 -80 116 -90 15 -5 20 0
65 59 l20 27 -63 46 c-34 25 -65 45 -69 45 -4 0 -21 -18 -38 -39z m62 12 c9
-9 -13 -34 -24 -27 -14 8 -11 34 4 34 8 0 17 -3 20 -7z m42 -42 c0 -8 -4 -16
-10 -18 -16 -5 -38 14 -30 26 9 16 40 9 40 -8z m-72 -5 c3 -12 -30 -32 -39
-24 -11 12 5 40 21 36 9 -2 17 -7 18 -12z m38 -50 c-14 -16 -41 -11 -41 8 0 7
5 17 12 24 19 19 46 -11 29 -32z m74 24 c0 -22 -29 -18 -33 3 -3 14 1 18 15
15 10 -2 18 -10 18 -18z m-32 -46 c-6 -16 -29 -19 -38 -4 -4 6 -1 17 5 26 15
18 42 0 33 -22z"/>
<path d="M2403 2280 c-33 -14 -47 -45 -27 -64 25 -25 69 -20 94 11 11 15 19
34 18 42 -4 19 -52 25 -85 11z m72 -10 c4 -6 -1 -22 -9 -35 -20 -30 -73 -35
-83 -8 -13 33 74 73 92 43z"/>
<path d="M2420 2240 c0 -5 4 -10 9 -10 6 0 13 5 16 10 3 6 -1 10 -9 10 -9 0
-16 -4 -16 -10z"/>
<path d="M2570 2216 c0 -30 -31 -73 -69 -95 -27 -17 -30 -21 -11 -15 36 9 78
52 85 86 4 16 4 32 1 35 -3 4 -6 -2 -6 -11z"/>
<path d="M2968 2289 c-10 -5 -18 -15 -18 -22 0 -8 3 -9 8 -1 4 6 16 16 27 22
11 6 16 11 10 11 -5 0 -18 -4 -27 -10z"/>
<path d="M2942 2225 c0 -16 2 -22 5 -12 2 9 2 23 0 30 -3 6 -5 -1 -5 -18z"/>
<path d="M2951 2180 c-2 -83 240 -375 367 -443 29 -16 52 -26 52 -24 0 2 -25
21 -56 41 -132 88 -299 281 -347 401 -9 22 -16 33 -16 25z"/>
<path d="M3190 2164 c0 -17 17 -36 24 -26 3 5 -1 15 -9 22 -8 7 -15 9 -15 4z"/>
<path d="M3300 2005 c0 -18 24 -30 40 -20 8 5 8 11 -1 21 -15 19 -39 18 -39
-1z"/>
<path d="M1785 2101 c-3 -5 -1 -12 4 -15 12 -8 41 3 41 15 0 12 -37 12 -45 0z"/>
<path d="M2036 1963 c-25 -32 -46 -61 -46 -65 0 -9 85 -68 98 -68 14 0 93 101
89 113 -1 5 -23 24 -49 43 l-46 34 -46 -57z m84 11 c0 -3 -5 -14 -10 -25 -13
-23 -33 -25 -50 -4 -19 23 15 59 41 44 11 -5 19 -12 19 -15z m39 -27 c8 -11 6
-18 -8 -31 -31 -28 -58 3 -29 32 15 15 23 15 37 -1z m-94 -21 c16 -12 17 -16
6 -30 -26 -31 -62 -9 -47 29 7 19 17 19 41 1z m50 -37 c4 -5 -1 -19 -11 -30
-22 -25 -49 -8 -33 22 11 21 34 25 44 8z"/>
<path d="M1525 1883 c-19 -25 -34 -51 -32 -57 2 -5 29 -28 61 -50 l58 -41 34
40 c18 22 34 47 34 57 0 16 -53 64 -97 87 -20 10 -25 7 -58 -36z m59 18 c9
-14 -4 -41 -19 -41 -21 0 -28 19 -15 35 14 17 26 19 34 6z m42 -32 c10 -16
-23 -46 -36 -33 -6 6 -8 18 -4 27 7 19 29 22 40 6z m-81 -30 c0 -7 -8 -15 -17
-17 -18 -3 -25 18 -11 32 10 10 28 1 28 -15z m121 0 c10 -16 -18 -40 -35 -29
-12 7 -12 11 -2 24 16 19 27 20 37 5z m-76 -24 c0 -16 -27 -32 -37 -22 -3 4
-3 13 0 22 8 20 37 20 37 0z m44 -24 c9 -15 -23 -36 -36 -23 -5 5 -7 15 -4 21
9 13 33 14 40 2z"/>
<path d="M1987 1770 c78 -45 88 -74 54 -153 -24 -55 -47 -70 -126 -78 l-60 -6
53 -1 c102 -3 161 53 162 154 0 46 -12 60 -77 93 -62 31 -66 25 -6 -9z"/>
<path d="M1864 1760 c-29 -11 -64 -58 -64 -84 0 -28 33 -81 64 -101 31 -21 58
-13 114 32 36 29 42 40 42 72 0 43 -20 67 -65 75 -16 3 -23 3 -15 0 8 -4 27
-16 43 -26 52 -37 29 -102 -49 -134 -49 -20 -60 -18 -90 21 -46 60 -27 114 49
142 21 7 25 12 12 12 -11 0 -30 -4 -41 -9z"/>
<path d="M1901 1712 c-70 -35 -66 -69 7 -79 40 -5 42 -4 59 32 17 36 17 37 -2
51 -24 18 -23 18 -64 -4z m69 -12 c0 -21 -33 -60 -49 -60 -10 0 -26 6 -36 14
-19 14 -19 15 -1 35 20 22 86 30 86 11z"/>
<path d="M1910 1682 c0 -5 7 -13 16 -16 10 -4 14 -1 12 6 -5 15 -28 23 -28 10z"/>
<path d="M2045 1540 c-11 -18 -63 -40 -117 -49 -44 -7 -47 -9 -18 -10 52 -1
104 16 130 44 13 14 21 25 17 25 -3 0 -9 -5 -12 -10z"/>
<path d="M2360 1753 c0 -4 5 -15 10 -23 8 -13 10 -13 10 2 0 9 -4 20 -10 23
-5 3 -10 3 -10 -2z"/>
<path d="M3660 1150 c-9 -6 -10 -10 -3 -10 6 0 15 5 18 10 8 12 4 12 -15 0z"/>
<path d="M2560 1515 c13 -14 26 -25 28 -25 3 0 -5 11 -18 25 -13 14 -26 25
-28 25 -3 0 5 -11 18 -25z"/>
<path d="M1850 1181 c0 -5 5 -13 10 -16 6 -3 10 -2 10 4 0 5 -4 13 -10 16 -5
3 -10 2 -10 -4z"/>
<path d="M1572 1144 c-19 -13 -23 -23 -20 -61 2 -36 9 -50 29 -66 24 -17 31
-18 63 -7 20 6 41 20 46 30 16 30 12 85 -8 103 -24 21 -81 22 -110 1z m102
-10 c40 -39 4 -117 -54 -117 -38 0 -60 23 -60 65 0 56 76 91 114 52z"/>
<path d="M1592 1118 c-7 -7 -12 -21 -12 -33 0 -12 5 -26 12 -33 7 -7 21 -12
33 -12 12 0 26 5 33 12 7 7 12 21 12 33 0 12 -5 26 -12 33 -7 7 -21 12 -33 12
-12 0 -26 -5 -33 -12z m51 -15 c4 -3 2 -12 -4 -20 -9 -10 -15 -10 -25 -2 -8 6
-11 15 -8 20 6 11 28 12 37 2z"/>
<path d="M1400 1091 c0 -6 4 -13 10 -16 6 -3 7 1 4 9 -7 18 -14 21 -14 7z"/>
<path d="M1420 1051 c0 -6 4 -13 10 -16 6 -3 7 1 4 9 -7 18 -14 21 -14 7z"/>
<path d="M3340 1043 c0 -5 -6 -18 -14 -28 -13 -18 -14 -18 -45 4 l-31 22 0
-30 c0 -16 -4 -33 -10 -36 -5 -3 -10 -16 -10 -27 0 -11 -7 -26 -17 -33 -11 -8
-13 -17 -7 -26 5 -8 9 -23 9 -34 0 -13 8 -21 23 -23 12 -2 22 -9 22 -15 0 -7
4 -18 9 -26 8 -12 12 -13 25 -1 14 11 19 10 36 -5 21 -19 19 -21 35 30 2 8 13
15 22 15 26 0 57 38 44 54 -6 7 -8 22 -4 34 3 15 0 24 -11 28 -9 3 -16 17 -16
30 0 17 -6 24 -20 24 -13 0 -20 7 -20 19 0 11 -4 23 -10 26 -5 3 -10 2 -10 -2z
m-42 -55 c8 -8 15 -8 25 1 22 18 44 3 67 -45 25 -50 17 -96 -16 -103 -10 -2
-22 -8 -26 -14 -12 -20 -67 -17 -79 4 -5 11 -16 19 -24 19 -21 0 -20 56 1 64
10 4 13 13 9 26 -4 11 -2 20 4 20 6 0 11 9 11 20 0 22 10 26 28 8z"/>
<path d="M1314 566 c-8 -22 1 -43 24 -55 29 -15 45 7 29 39 -15 29 -45 38 -53
16z m44 -29 c5 -23 -10 -21 -26 4 -12 18 -11 20 5 17 10 -2 19 -11 21 -21z"/>
<path d="M1425 530 c-8 -13 20 -59 41 -67 31 -12 38 14 13 46 -25 31 -43 38
-54 21z m43 -36 c-10 -10 -28 6 -28 24 0 15 1 15 17 -1 9 -9 14 -19 11 -23z"/>
<path d="M1325 479 c-4 -6 0 -18 9 -27 15 -15 16 -15 16 5 0 25 -15 38 -25 22z"/>
<path d="M1526 398 c14 -47 64 -80 64 -43 0 26 -31 65 -52 65 -15 0 -18 -5
-12 -22z"/>
<path d="M1595 290 c-11 -18 28 -85 50 -85 28 0 31 35 5 68 -22 28 -44 35 -55
17z"/>
<path d="M1530 191 c0 -13 29 -35 37 -28 7 8 -15 37 -28 37 -5 0 -9 -4 -9 -9z"/>
<path d="M1605 170 c-8 -14 41 -80 59 -80 8 0 17 7 20 16 15 38 -58 97 -79 64z"/>
<path d="M3525 418 c35 -171 51 -206 77 -180 15 15 1 72 -36 156 -28 62 -52
76 -41 24z m65 -146 c0 -33 -16 -18 -26 23 -7 27 -6 29 9 16 10 -7 17 -25 17
-39z"/>
<path d="M3695 423 c27 -194 119 -371 174 -336 9 6 15 23 15 39 -3 70 -147
344 -181 344 -13 0 -14 -8 -8 -47z m63 -50 c17 -27 39 -65 49 -87 l18 -38 -25
-20 c-23 -18 -25 -19 -37 -2 -24 33 -61 194 -44 194 5 0 23 -21 39 -47z m91
-187 c25 -40 27 -64 4 -73 -19 -7 -63 38 -63 66 0 17 18 41 31 41 4 0 17 -15
28 -34z"/>
<path d="M3993 260 c7 -57 61 -163 98 -194 24 -21 34 -24 50 -16 10 6 19 17
19 25 0 15 -142 209 -162 221 -8 5 -9 -6 -5 -36z m75 -83 c-7 -40 -34 -13 -53
53 -7 25 -7 25 24 -5 18 -16 31 -38 29 -48z m39 -35 c18 -11 32 -57 23 -73 -7
-11 -14 -9 -34 11 -40 37 -31 89 11 62z"/>
<path d="M600 4872 c0 -4 20 -28 45 -52 49 -49 50 -48 34 16 -11 41 -14 44
-45 44 -19 0 -34 -4 -34 -8z"/>
<path d="M1526 4872 c-8 -13 32 -72 49 -72 20 0 19 24 -1 55 -16 25 -38 32
-48 17z"/>
<path d="M3534 4840 c11 -71 40 -145 56 -145 22 0 17 57 -10 128 -13 35 -27
57 -37 57 -13 0 -14 -8 -9 -40z m54 -104 c4 -35 -14 -26 -20 9 -4 16 -1 24 6
22 6 -2 12 -16 14 -31z"/>
<path d="M3704 4858 c3 -13 6 -30 7 -38 0 -8 4 -4 8 9 4 14 11 26 17 28 11 4
84 -124 84 -145 0 -5 -11 -17 -25 -26 -25 -17 -26 -16 -41 16 -12 26 -14 28
-10 7 16 -78 73 -159 111 -159 33 0 38 27 16 91 -21 61 -74 171 -103 212 -25
35 -74 39 -64 5z m146 -210 c24 -40 23 -73 -4 -73 -28 0 -60 48 -52 79 9 35
32 33 56 -6z"/>
<path d="M4125 4870 c3 -5 10 -10 16 -10 5 0 9 5 9 10 0 6 -7 10 -16 10 -8 0
-12 -4 -9 -10z"/>
<path d="M4430 4871 c0 -16 27 -31 44 -25 28 11 19 34 -14 34 -16 0 -30 -4
-30 -9z"/>
<path d="M4574 4855 c-35 -54 33 -116 85 -77 15 10 27 29 29 41 9 57 -82 85
-114 36z m100 -8 c15 -24 -2 -34 -19 -11 -8 10 -15 23 -15 27 0 13 22 3 34
-16z"/>
<path d="M4800 4870 c0 -5 4 -10 9 -10 6 0 13 5 16 10 3 6 -1 10 -9 10 -9 0
-16 -4 -16 -10z"/>
<path d="M4204 4859 c-10 -17 13 -36 27 -22 12 12 4 33 -11 33 -5 0 -12 -5
-16 -11z"/>
<path d="M117 4840 l6 -25 -24 20 -23 20 15 -24 c9 -14 20 -26 26 -28 17 -6
23 24 8 44 -13 17 -14 16 -8 -7z"/>
<path d="M1031 4844 c0 -11 3 -14 6 -6 3 7 2 16 -1 19 -3 4 -6 -2 -5 -13z"/>
<path d="M194 4775 c-12 -49 36 -74 70 -36 28 31 17 55 -26 59 -33 3 -38 0
-44 -23z"/>
<path d="M4757 4793 c-15 -14 -7 -62 12 -68 40 -12 84 32 60 61 -12 14 -60 19
-72 7z"/>
<path d="M3731 4754 c0 -11 3 -14 6 -6 3 7 2 16 -1 19 -3 4 -6 -2 -5 -13z"/>
<path d="M4432 4758 c5 -15 28 -18 29 -3 0 6 -7 12 -17 13 -10 3 -15 -1 -12
-10z"/>
<path d="M1596 4751 c-15 -23 36 -93 60 -84 20 7 17 36 -7 67 -21 26 -43 34
-53 17z"/>
<path d="M4614 4696 c-11 -28 4 -48 33 -44 22 2 28 8 28 28 0 20 -6 26 -28 28
-18 2 -29 -2 -33 -12z"/>
<path d="M4188 4693 c6 -2 18 -2 25 0 6 3 1 5 -13 5 -14 0 -19 -2 -12 -5z"/>
<path d="M246 4657 c3 -10 9 -15 12 -12 3 3 0 11 -7 18 -10 9 -11 8 -5 -6z"/>
<path d="M4492 4658 c-20 -20 -14 -56 13 -74 23 -15 27 -15 50 0 30 19 32 46
7 69 -22 20 -53 22 -70 5z m52 -4 c17 -7 22 -34 6 -34 -5 0 -14 9 -20 20 -12
22 -10 23 14 14z"/>
<path d="M1537 4654 c-8 -9 11 -44 23 -44 6 0 10 6 10 14 0 16 -24 38 -33 30z"/>
<path d="M4745 4647 c-5 -12 -2 -24 9 -35 21 -21 50 -6 54 29 l3 24 -13 -24
c-16 -30 -31 -29 -39 1 -6 21 -7 21 -14 5z"/>
<path d="M1606 4632 c-9 -15 33 -72 53 -72 28 0 33 25 10 54 -20 25 -53 34
-63 18z"/>
<path d="M4650 4586 c0 -7 7 -19 15 -26 21 -17 51 6 34 26 -15 18 -49 18 -49
0z"/>
<path d="M2960 4354 c0 -16 -6 -36 -12 -43 -11 -11 -10 -13 2 -9 22 7 37 55
22 70 -9 9 -12 5 -12 -18z"/>
<path d="M1518 4353 c7 -3 16 -2 19 1 4 3 -2 6 -13 5 -11 0 -14 -3 -6 -6z"/>
<path d="M1807 4330 c-23 -19 -46 -30 -65 -30 -17 0 -33 -4 -36 -9 -13 -20 80
2 105 25 14 13 38 24 55 25 25 0 26 2 9 9 -30 13 -32 12 -68 -20z"/>
<path d="M1821 4290 c-27 -23 -16 -27 15 -6 11 8 31 16 44 19 22 4 22 4 -5 5
-16 1 -41 -8 -54 -18z"/>
<path d="M1720 4260 c-20 -6 -21 -8 -5 -8 11 0 34 4 50 8 27 7 27 8 5 8 -14 0
-36 -4 -50 -8z"/>
<path d="M1810 4235 c-14 -17 -7 -45 13 -45 19 0 37 21 37 42 0 22 -32 24 -50
3z"/>
<path d="M1929 4212 c-34 -30 -33 -52 1 -52 26 0 85 53 76 68 -12 20 -44 13
-77 -16z"/>
<path d="M1710 4190 c0 -5 4 -10 9 -10 6 0 13 5 16 10 3 6 -1 10 -9 10 -9 0
-16 -4 -16 -10z"/>
<path d="M4516 4193 c-3 -3 -1 -12 5 -20 13 -14 49 -18 49 -5 0 11 -46 32 -54
25z"/>
<path d="M2251 4127 c16 -12 79 -45 79 -42 0 7 -63 45 -74 45 -5 0 -7 -1 -5
-3z"/>
<path d="M2210 4098 c3 -3 21 -10 40 -17 19 -6 30 -7 25 -2 -6 5 -23 13 -40
17 -16 4 -28 5 -25 2z"/>
<path d="M711 3958 c9 -7 19 -20 22 -28 4 -9 6 -5 4 10 -1 16 -9 26 -22 28
-18 2 -18 1 -4 -10z"/>
<path d="M2404 3891 c-1 -55 -26 -121 -63 -166 l-16 -20 24 20 c36 30 71 113
71 167 0 26 -3 49 -7 51 -5 3 -8 -20 -9 -52z"/>
<path d="M4294 3830 c-20 -8 -42 -30 -30 -30 3 0 20 9 38 20 34 20 30 25 -8
10z"/>
<path d="M4218 3793 c7 -3 16 -2 19 1 4 3 -2 6 -13 5 -11 0 -14 -3 -6 -6z"/>
<path d="M4228 3743 c6 -2 18 -2 25 0 6 3 1 5 -13 5 -14 0 -19 -2 -12 -5z"/>
<path d="M3602 3510 c0 -14 2 -19 5 -12 2 6 2 18 0 25 -3 6 -5 1 -5 -13z"/>
<path d="M3611 3464 c0 -11 3 -14 6 -6 3 7 2 16 -1 19 -3 4 -6 -2 -5 -13z"/>
<path d="M3710 3433 c0 -19 96 -155 139 -198 62 -59 49 -31 -17 40 -33 34 -73
87 -90 116 -17 30 -32 49 -32 42z"/>
<path d="M4085 1458 c2 -31 8 -65 14 -75 9 -17 10 -17 17 1 4 10 2 21 -4 25
-6 3 -15 29 -21 56 l-10 50 4 -57z"/>
<path d="M4121 1434 c0 -11 3 -14 6 -6 3 7 2 16 -1 19 -3 4 -6 -2 -5 -13z"/>
<path d="M877 1113 c-11 -10 -8 -52 4 -75 11 -21 12 -20 30 13 10 19 18 43 18
54 0 12 -5 7 -12 -14 -17 -50 -42 -55 -34 -7 6 37 5 41 -6 29z"/>
<path d="M4429 957 c16 -20 -5 -57 -34 -57 -16 0 -17 -2 -5 -10 8 -5 16 -18
16 -30 1 -15 -5 -20 -22 -20 -30 0 -32 -30 -3 -37 21 -6 21 -6 -2 -25 -24 -19
-24 -19 -1 -13 27 8 28 -3 5 -44 -23 -40 -9 -67 35 -65 22 1 39 -7 62 -31 37
-38 32 -60 -11 -51 -24 4 -33 -1 -61 -37 -26 -33 -28 -38 -10 -25 13 9 30 25
38 36 9 13 21 18 34 15 32 -8 23 -25 -37 -70 -31 -24 -50 -43 -42 -43 8 0 49
30 92 66 69 58 82 65 108 60 19 -4 39 0 53 9 13 9 30 13 39 9 25 -9 39 4 27
26 -10 19 -11 19 -50 -1 -31 -16 -49 -19 -78 -14 -116 21 -174 134 -139 271 8
32 17 66 19 74 2 9 -6 16 -22 18 -20 3 -22 2 -11 -11z"/>
<path d="M2304 936 c-9 -23 0 -51 16 -51 7 0 22 15 33 33 l19 32 -31 0 c-18 0
-34 -6 -37 -14z"/>
<path d="M2091 890 c14 -31 19 -36 19 -24 0 6 -7 19 -16 30 -14 18 -14 18 -3
-6z"/>
<path d="M930 857 c0 -26 5 -47 10 -47 6 0 15 -10 20 -22 8 -22 9 -22 9 5 1
18 -4 27 -15 27 -12 0 -15 8 -13 34 2 19 0 38 -4 42 -4 4 -7 -14 -7 -39z"/>
<path d="M4471 874 c0 -11 3 -14 6 -6 3 7 2 16 -1 19 -3 4 -6 -2 -5 -13z"/>
<path d="M4510 853 c0 -54 17 -107 40 -128 18 -17 64 -24 76 -12 11 11 -7 44
-50 92 -25 27 -44 51 -44 54 2 18 -3 31 -12 31 -5 0 -10 -17 -10 -37z m85
-113 c3 -6 0 -10 -7 -10 -15 0 -38 19 -38 32 0 10 36 -8 45 -22z"/>
<path d="M2162 840 c0 -14 2 -19 5 -12 2 6 2 18 0 25 -3 6 -5 1 -5 -13z"/>
<path d="M4463 805 c0 -22 2 -30 4 -17 2 12 2 30 0 40 -3 9 -5 -1 -4 -23z"/>
<path d="M568 793 c-14 -3 -18 -14 -16 -41 l1 -37 4 33 c3 23 9 32 23 32 22 0
30 -11 41 -54 l7 -31 1 30 c1 29 -23 76 -37 74 -4 -1 -15 -3 -24 -6z"/>
<path d="M2840 783 c0 -14 19 -38 25 -32 8 8 -5 39 -16 39 -5 0 -9 -3 -9 -7z"/>
<path d="M4072 748 c-7 -7 -12 -25 -12 -40 0 -34 41 -59 68 -41 21 12 28 59
11 79 -14 17 -51 18 -67 2z m61 -20 c13 -19 2 -48 -17 -48 -23 0 -40 38 -25
56 14 17 28 14 42 -8z"/>
<path d="M4244 746 c-8 -22 3 -33 18 -18 9 9 9 15 0 24 -9 9 -13 7 -18 -6z"/>
<path d="M4470 750 c0 -26 38 -78 69 -95 38 -19 82 -19 107 1 18 15 18 15 -3
5 -57 -28 -130 6 -159 74 -7 16 -13 23 -14 15z"/>
<path d="M492 663 c-1 -28 -5 -60 -8 -70 -5 -17 -5 -17 6 0 6 9 9 41 7 70 l-3
52 -2 -52z"/>
<path d="M561 699 c-2 -36 57 -52 67 -19 4 12 2 13 -9 3 -20 -19 -39 -16 -49
10 -6 15 -9 17 -9 6z"/>
<path d="M4197 653 c-14 -13 -7 -62 11 -71 35 -19 54 14 36 62 -6 16 -35 22
-47 9z"/>
<path d="M4136 623 c-11 -11 -6 -23 9 -23 8 0 15 4 15 9 0 13 -16 22 -24 14z"/>
<path d="M408 603 c7 -3 16 -2 19 1 4 3 -2 6 -13 5 -11 0 -14 -3 -6 -6z"/>
<path d="M537 580 c-17 -28 -17 -29 1 -39 31 -17 57 12 53 57 -2 23 -37 12
-54 -18z m43 -10 c-12 -22 -40 -27 -40 -7 0 19 10 27 32 27 16 0 17 -3 8 -20z"/>
<path d="M4377 570 c3 -11 7 -20 9 -20 2 0 4 9 4 20 0 11 -4 20 -9 20 -5 0 -7
-9 -4 -20z"/>
<path d="M3965 570 c-4 -7 -3 -16 3 -22 14 -14 45 -2 40 15 -6 16 -34 21 -43
7z"/>
<path d="M370 550 c0 -5 6 -10 14 -10 8 0 18 5 21 10 3 6 -3 10 -14 10 -12 0
-21 -4 -21 -10z"/>
<path d="M4662 518 c-18 -18 -15 -35 10 -52 50 -35 104 -3 72 42 -17 24 -62
30 -82 10z"/>
<path d="M4562 504 c4 -21 22 -23 26 -1 2 10 -3 17 -13 17 -10 0 -15 -6 -13
-16z"/>
<path d="M4033 484 c-8 -21 13 -42 28 -27 13 13 5 43 -11 43 -6 0 -13 -7 -17
-16z"/>
<path d="M336 475 c4 -11 8 -51 9 -90 0 -69 18 -127 29 -95 2 8 6 42 9 75 4
56 2 63 -26 95 -16 19 -26 26 -21 15z"/>
<path d="M4440 429 c-15 -27 -6 -49 19 -49 23 0 45 34 37 56 -8 21 -44 17 -56
-7z"/>
<path d="M4120 420 c0 -16 5 -21 23 -18 12 2 22 10 22 18 0 8 -10 16 -22 18
-18 3 -23 -2 -23 -18z"/>
<path d="M4794 429 c-10 -17 13 -36 27 -22 12 12 4 33 -11 33 -5 0 -12 -5 -16
-11z"/>
<path d="M4576 398 c-9 -12 -16 -28 -16 -36 0 -20 47 -62 70 -62 27 0 60 35
60 63 0 54 -84 79 -114 35z m94 -7 c6 -13 6 -22 1 -26 -9 -5 -31 24 -31 39 0
14 20 4 30 -13z"/>
<path d="M4204 399 c-8 -14 11 -33 25 -25 11 7 4 36 -9 36 -5 0 -12 -5 -16
-11z"/>
<path d="M200 316 c-17 -32 -7 -56 24 -56 43 0 70 42 44 68 -20 20 -54 14 -68
-12z"/>
<path d="M4754 326 c-12 -31 0 -61 27 -64 36 -4 65 29 49 57 -13 25 -67 29
-76 7z"/>
<path d="M4904 320 c18 -67 18 -81 2 -105 -9 -14 -23 -25 -31 -25 -8 0 -15 -9
-15 -20 0 -29 -87 -120 -114 -120 -12 0 -31 -7 -42 -15 -27 -20 -84 -19 -108
4 -20 17 -127 38 -109 21 16 -16 133 -50 172 -50 41 0 112 31 170 74 60 45 70
27 20 -35 l-31 -39 26 0 c15 0 29 7 32 15 4 8 12 15 20 15 8 0 11 -6 8 -15 -5
-12 4 -15 45 -15 60 0 63 9 25 66 -26 38 -43 91 -25 80 5 -4 11 2 13 11 5 26
91 -56 118 -113 12 -24 28 -44 36 -44 10 0 12 5 8 13 -14 23 -187 272 -207
297 l-20 25 7 -25z"/>
<path d="M4436 301 c-3 -5 1 -14 8 -20 16 -13 32 2 21 19 -8 12 -22 13 -29 1z"/>
<path d="M4615 229 c-10 -30 18 -58 43 -43 9 6 17 22 17 35 0 34 -50 41 -60 8z"/>
<path d="M190 191 c-5 -11 -7 -27 -4 -35 7 -18 49 -22 59 -6 4 6 -4 9 -17 7
-31 -3 -30 24 2 40 l25 13 -27 0 c-17 0 -31 -7 -38 -19z"/>
<path d="M314 175 c-81 -100 -104 -121 -152 -137 -61 -22 -96 -23 -112 -3 -14
17 -40 20 -40 5 0 -15 36 -30 75 -30 91 0 204 70 246 152 27 52 19 58 -17 13z"/>
<path d="M4498 199 c-44 -25 3 -100 51 -84 33 10 39 54 11 77 -25 20 -37 22
-62 7z"/>
<path d="M4751 196 c-14 -17 1 -56 22 -56 19 0 37 21 37 45 0 18 -1 18 -13 -4
-14 -28 -32 -25 -32 7 1 26 1 26 -14 8z"/>
<path d="M102 118 c2 -15 10 -23 23 -23 30 0 27 39 -3 43 -20 3 -23 0 -20 -20z"/>
<path d="M4656 124 c-7 -19 10 -35 34 -31 8 1 15 11 15 22 0 26 -40 33 -49 9z"/>
<path d="M760 85 c-10 -12 -10 -18 0 -30 26 -32 66 -7 53 33 -6 17 -38 15 -53
-3z"/>
<path d="M1445 20 c-4 -6 15 -10 50 -10 35 0 54 4 50 10 -3 6 -26 10 -50 10
-24 0 -47 -4 -50 -10z"/>
</g>
</svg>
